<mxfile host="65bd71144e">
    <diagram id="iFnoHtRCHYLShl2YpdOd" name="Page-1">
        <mxGraphModel dx="1844" dy="767" grid="1" gridSize="10" guides="1" tooltips="1" connect="1" arrows="1" fold="1" page="1" pageScale="1" pageWidth="850" pageHeight="1100" math="0" shadow="0">
            <root>
                <mxCell id="0"/>
                <mxCell id="1" parent="0"/>
                <mxCell id="2" value="Resource" style="shape=table;startSize=30;container=1;collapsible=1;childLayout=tableLayout;fixedRows=1;rowLines=0;fontStyle=1;align=center;resizeLast=1;" vertex="1" parent="1">
                    <mxGeometry x="160" y="200" width="180" height="210" as="geometry"/>
                </mxCell>
                <mxCell id="3" value="" style="shape=tableRow;horizontal=0;startSize=0;swimlaneHead=0;swimlaneBody=0;fillColor=none;collapsible=0;dropTarget=0;points=[[0,0.5],[1,0.5]];portConstraint=eastwest;top=0;left=0;right=0;bottom=1;" vertex="1" parent="2">
                    <mxGeometry y="30" width="180" height="30" as="geometry"/>
                </mxCell>
                <mxCell id="4" value="PK" style="shape=partialRectangle;connectable=0;fillColor=none;top=0;left=0;bottom=0;right=0;fontStyle=1;overflow=hidden;" vertex="1" parent="3">
                    <mxGeometry width="30" height="30" as="geometry">
                        <mxRectangle width="30" height="30" as="alternateBounds"/>
                    </mxGeometry>
                </mxCell>
                <mxCell id="5" value="id" style="shape=partialRectangle;connectable=0;fillColor=none;top=0;left=0;bottom=0;right=0;align=left;spacingLeft=6;fontStyle=5;overflow=hidden;" vertex="1" parent="3">
                    <mxGeometry x="30" width="150" height="30" as="geometry">
                        <mxRectangle width="150" height="30" as="alternateBounds"/>
                    </mxGeometry>
                </mxCell>
                <mxCell id="6" value="" style="shape=tableRow;horizontal=0;startSize=0;swimlaneHead=0;swimlaneBody=0;fillColor=none;collapsible=0;dropTarget=0;points=[[0,0.5],[1,0.5]];portConstraint=eastwest;top=0;left=0;right=0;bottom=0;" vertex="1" parent="2">
                    <mxGeometry y="60" width="180" height="30" as="geometry"/>
                </mxCell>
                <mxCell id="7" value="" style="shape=partialRectangle;connectable=0;fillColor=none;top=0;left=0;bottom=0;right=0;editable=1;overflow=hidden;" vertex="1" parent="6">
                    <mxGeometry width="30" height="30" as="geometry">
                        <mxRectangle width="30" height="30" as="alternateBounds"/>
                    </mxGeometry>
                </mxCell>
                <mxCell id="8" value="isbn" style="shape=partialRectangle;connectable=0;fillColor=none;top=0;left=0;bottom=0;right=0;align=left;spacingLeft=6;overflow=hidden;" vertex="1" parent="6">
                    <mxGeometry x="30" width="150" height="30" as="geometry">
                        <mxRectangle width="150" height="30" as="alternateBounds"/>
                    </mxGeometry>
                </mxCell>
                <mxCell id="82" value="" style="shape=tableRow;horizontal=0;startSize=0;swimlaneHead=0;swimlaneBody=0;fillColor=none;collapsible=0;dropTarget=0;points=[[0,0.5],[1,0.5]];portConstraint=eastwest;top=0;left=0;right=0;bottom=0;" vertex="1" parent="2">
                    <mxGeometry y="90" width="180" height="30" as="geometry"/>
                </mxCell>
                <mxCell id="83" value="" style="shape=partialRectangle;connectable=0;fillColor=none;top=0;left=0;bottom=0;right=0;editable=1;overflow=hidden;" vertex="1" parent="82">
                    <mxGeometry width="30" height="30" as="geometry">
                        <mxRectangle width="30" height="30" as="alternateBounds"/>
                    </mxGeometry>
                </mxCell>
                <mxCell id="84" value="author" style="shape=partialRectangle;connectable=0;fillColor=none;top=0;left=0;bottom=0;right=0;align=left;spacingLeft=6;overflow=hidden;" vertex="1" parent="82">
                    <mxGeometry x="30" width="150" height="30" as="geometry">
                        <mxRectangle width="150" height="30" as="alternateBounds"/>
                    </mxGeometry>
                </mxCell>
                <mxCell id="12" value="" style="shape=tableRow;horizontal=0;startSize=0;swimlaneHead=0;swimlaneBody=0;fillColor=none;collapsible=0;dropTarget=0;points=[[0,0.5],[1,0.5]];portConstraint=eastwest;top=0;left=0;right=0;bottom=0;" vertex="1" parent="2">
                    <mxGeometry y="120" width="180" height="30" as="geometry"/>
                </mxCell>
                <mxCell id="13" value="" style="shape=partialRectangle;connectable=0;fillColor=none;top=0;left=0;bottom=0;right=0;editable=1;overflow=hidden;" vertex="1" parent="12">
                    <mxGeometry width="30" height="30" as="geometry">
                        <mxRectangle width="30" height="30" as="alternateBounds"/>
                    </mxGeometry>
                </mxCell>
                <mxCell id="14" value="publication_year" style="shape=partialRectangle;connectable=0;fillColor=none;top=0;left=0;bottom=0;right=0;align=left;spacingLeft=6;overflow=hidden;" vertex="1" parent="12">
                    <mxGeometry x="30" width="150" height="30" as="geometry">
                        <mxRectangle width="150" height="30" as="alternateBounds"/>
                    </mxGeometry>
                </mxCell>
                <mxCell id="122" value="" style="shape=tableRow;horizontal=0;startSize=0;swimlaneHead=0;swimlaneBody=0;fillColor=none;collapsible=0;dropTarget=0;points=[[0,0.5],[1,0.5]];portConstraint=eastwest;top=0;left=0;right=0;bottom=0;" vertex="1" parent="2">
                    <mxGeometry y="150" width="180" height="30" as="geometry"/>
                </mxCell>
                <mxCell id="123" value="" style="shape=partialRectangle;connectable=0;fillColor=none;top=0;left=0;bottom=0;right=0;editable=1;overflow=hidden;" vertex="1" parent="122">
                    <mxGeometry width="30" height="30" as="geometry">
                        <mxRectangle width="30" height="30" as="alternateBounds"/>
                    </mxGeometry>
                </mxCell>
                <mxCell id="124" value="edition" style="shape=partialRectangle;connectable=0;fillColor=none;top=0;left=0;bottom=0;right=0;align=left;spacingLeft=6;overflow=hidden;" vertex="1" parent="122">
                    <mxGeometry x="30" width="150" height="30" as="geometry">
                        <mxRectangle width="150" height="30" as="alternateBounds"/>
                    </mxGeometry>
                </mxCell>
                <mxCell id="165" value="" style="shape=tableRow;horizontal=0;startSize=0;swimlaneHead=0;swimlaneBody=0;fillColor=none;collapsible=0;dropTarget=0;points=[[0,0.5],[1,0.5]];portConstraint=eastwest;top=0;left=0;right=0;bottom=0;" vertex="1" parent="2">
                    <mxGeometry y="180" width="180" height="30" as="geometry"/>
                </mxCell>
                <mxCell id="166" value="" style="shape=partialRectangle;connectable=0;fillColor=none;top=0;left=0;bottom=0;right=0;editable=1;overflow=hidden;" vertex="1" parent="165">
                    <mxGeometry width="30" height="30" as="geometry">
                        <mxRectangle width="30" height="30" as="alternateBounds"/>
                    </mxGeometry>
                </mxCell>
                <mxCell id="167" value="type" style="shape=partialRectangle;connectable=0;fillColor=none;top=0;left=0;bottom=0;right=0;align=left;spacingLeft=6;overflow=hidden;" vertex="1" parent="165">
                    <mxGeometry x="30" width="150" height="30" as="geometry">
                        <mxRectangle width="150" height="30" as="alternateBounds"/>
                    </mxGeometry>
                </mxCell>
                <mxCell id="15" value="ResourceInstance" style="shape=table;startSize=30;container=1;collapsible=1;childLayout=tableLayout;fixedRows=1;rowLines=0;fontStyle=1;align=center;resizeLast=1;" vertex="1" parent="1">
                    <mxGeometry x="590" y="250" width="180" height="150" as="geometry"/>
                </mxCell>
                <mxCell id="16" value="" style="shape=tableRow;horizontal=0;startSize=0;swimlaneHead=0;swimlaneBody=0;fillColor=none;collapsible=0;dropTarget=0;points=[[0,0.5],[1,0.5]];portConstraint=eastwest;top=0;left=0;right=0;bottom=1;" vertex="1" parent="15">
                    <mxGeometry y="30" width="180" height="30" as="geometry"/>
                </mxCell>
                <mxCell id="17" value="PK" style="shape=partialRectangle;connectable=0;fillColor=none;top=0;left=0;bottom=0;right=0;fontStyle=1;overflow=hidden;" vertex="1" parent="16">
                    <mxGeometry width="30" height="30" as="geometry">
                        <mxRectangle width="30" height="30" as="alternateBounds"/>
                    </mxGeometry>
                </mxCell>
                <mxCell id="18" value="id" style="shape=partialRectangle;connectable=0;fillColor=none;top=0;left=0;bottom=0;right=0;align=left;spacingLeft=6;fontStyle=5;overflow=hidden;" vertex="1" parent="16">
                    <mxGeometry x="30" width="150" height="30" as="geometry">
                        <mxRectangle width="150" height="30" as="alternateBounds"/>
                    </mxGeometry>
                </mxCell>
                <mxCell id="19" value="" style="shape=tableRow;horizontal=0;startSize=0;swimlaneHead=0;swimlaneBody=0;fillColor=none;collapsible=0;dropTarget=0;points=[[0,0.5],[1,0.5]];portConstraint=eastwest;top=0;left=0;right=0;bottom=0;" vertex="1" parent="15">
                    <mxGeometry y="60" width="180" height="30" as="geometry"/>
                </mxCell>
                <mxCell id="20" value="" style="shape=partialRectangle;connectable=0;fillColor=none;top=0;left=0;bottom=0;right=0;editable=1;overflow=hidden;" vertex="1" parent="19">
                    <mxGeometry width="30" height="30" as="geometry">
                        <mxRectangle width="30" height="30" as="alternateBounds"/>
                    </mxGeometry>
                </mxCell>
                <mxCell id="21" value="title" style="shape=partialRectangle;connectable=0;fillColor=none;top=0;left=0;bottom=0;right=0;align=left;spacingLeft=6;overflow=hidden;" vertex="1" parent="19">
                    <mxGeometry x="30" width="150" height="30" as="geometry">
                        <mxRectangle width="150" height="30" as="alternateBounds"/>
                    </mxGeometry>
                </mxCell>
                <mxCell id="22" value="" style="shape=tableRow;horizontal=0;startSize=0;swimlaneHead=0;swimlaneBody=0;fillColor=none;collapsible=0;dropTarget=0;points=[[0,0.5],[1,0.5]];portConstraint=eastwest;top=0;left=0;right=0;bottom=0;" vertex="1" parent="15">
                    <mxGeometry y="90" width="180" height="30" as="geometry"/>
                </mxCell>
                <mxCell id="23" value="" style="shape=partialRectangle;connectable=0;fillColor=none;top=0;left=0;bottom=0;right=0;editable=1;overflow=hidden;" vertex="1" parent="22">
                    <mxGeometry width="30" height="30" as="geometry">
                        <mxRectangle width="30" height="30" as="alternateBounds"/>
                    </mxGeometry>
                </mxCell>
                <mxCell id="24" value="status" style="shape=partialRectangle;connectable=0;fillColor=none;top=0;left=0;bottom=0;right=0;align=left;spacingLeft=6;overflow=hidden;" vertex="1" parent="22">
                    <mxGeometry x="30" width="150" height="30" as="geometry">
                        <mxRectangle width="150" height="30" as="alternateBounds"/>
                    </mxGeometry>
                </mxCell>
                <mxCell id="25" value="" style="shape=tableRow;horizontal=0;startSize=0;swimlaneHead=0;swimlaneBody=0;fillColor=none;collapsible=0;dropTarget=0;points=[[0,0.5],[1,0.5]];portConstraint=eastwest;top=0;left=0;right=0;bottom=0;" vertex="1" parent="15">
                    <mxGeometry y="120" width="180" height="30" as="geometry"/>
                </mxCell>
                <mxCell id="26" value="" style="shape=partialRectangle;connectable=0;fillColor=none;top=0;left=0;bottom=0;right=0;editable=1;overflow=hidden;" vertex="1" parent="25">
                    <mxGeometry width="30" height="30" as="geometry">
                        <mxRectangle width="30" height="30" as="alternateBounds"/>
                    </mxGeometry>
                </mxCell>
                <mxCell id="27" value="language" style="shape=partialRectangle;connectable=0;fillColor=none;top=0;left=0;bottom=0;right=0;align=left;spacingLeft=6;overflow=hidden;" vertex="1" parent="25">
                    <mxGeometry x="30" width="150" height="30" as="geometry">
                        <mxRectangle width="150" height="30" as="alternateBounds"/>
                    </mxGeometry>
                </mxCell>
                <mxCell id="28" value="User" style="shape=table;startSize=30;container=1;collapsible=1;childLayout=tableLayout;fixedRows=1;rowLines=0;fontStyle=1;align=center;resizeLast=1;" vertex="1" parent="1">
                    <mxGeometry x="430" y="740" width="180" height="150" as="geometry">
                        <mxRectangle x="470" y="740" width="70" height="30" as="alternateBounds"/>
                    </mxGeometry>
                </mxCell>
                <mxCell id="29" value="" style="shape=tableRow;horizontal=0;startSize=0;swimlaneHead=0;swimlaneBody=0;fillColor=none;collapsible=0;dropTarget=0;points=[[0,0.5],[1,0.5]];portConstraint=eastwest;top=0;left=0;right=0;bottom=1;" vertex="1" parent="28">
                    <mxGeometry y="30" width="180" height="30" as="geometry"/>
                </mxCell>
                <mxCell id="30" value="PK" style="shape=partialRectangle;connectable=0;fillColor=none;top=0;left=0;bottom=0;right=0;fontStyle=1;overflow=hidden;" vertex="1" parent="29">
                    <mxGeometry width="30" height="30" as="geometry">
                        <mxRectangle width="30" height="30" as="alternateBounds"/>
                    </mxGeometry>
                </mxCell>
                <mxCell id="31" value="id" style="shape=partialRectangle;connectable=0;fillColor=none;top=0;left=0;bottom=0;right=0;align=left;spacingLeft=6;fontStyle=5;overflow=hidden;" vertex="1" parent="29">
                    <mxGeometry x="30" width="150" height="30" as="geometry">
                        <mxRectangle width="150" height="30" as="alternateBounds"/>
                    </mxGeometry>
                </mxCell>
                <mxCell id="32" value="" style="shape=tableRow;horizontal=0;startSize=0;swimlaneHead=0;swimlaneBody=0;fillColor=none;collapsible=0;dropTarget=0;points=[[0,0.5],[1,0.5]];portConstraint=eastwest;top=0;left=0;right=0;bottom=0;" vertex="1" parent="28">
                    <mxGeometry y="60" width="180" height="30" as="geometry"/>
                </mxCell>
                <mxCell id="33" value="" style="shape=partialRectangle;connectable=0;fillColor=none;top=0;left=0;bottom=0;right=0;editable=1;overflow=hidden;" vertex="1" parent="32">
                    <mxGeometry width="30" height="30" as="geometry">
                        <mxRectangle width="30" height="30" as="alternateBounds"/>
                    </mxGeometry>
                </mxCell>
                <mxCell id="34" value="Row 1" style="shape=partialRectangle;connectable=0;fillColor=none;top=0;left=0;bottom=0;right=0;align=left;spacingLeft=6;overflow=hidden;" vertex="1" parent="32">
                    <mxGeometry x="30" width="150" height="30" as="geometry">
                        <mxRectangle width="150" height="30" as="alternateBounds"/>
                    </mxGeometry>
                </mxCell>
                <mxCell id="35" value="" style="shape=tableRow;horizontal=0;startSize=0;swimlaneHead=0;swimlaneBody=0;fillColor=none;collapsible=0;dropTarget=0;points=[[0,0.5],[1,0.5]];portConstraint=eastwest;top=0;left=0;right=0;bottom=0;" vertex="1" parent="28">
                    <mxGeometry y="90" width="180" height="30" as="geometry"/>
                </mxCell>
                <mxCell id="36" value="" style="shape=partialRectangle;connectable=0;fillColor=none;top=0;left=0;bottom=0;right=0;editable=1;overflow=hidden;" vertex="1" parent="35">
                    <mxGeometry width="30" height="30" as="geometry">
                        <mxRectangle width="30" height="30" as="alternateBounds"/>
                    </mxGeometry>
                </mxCell>
                <mxCell id="37" value="Row 2" style="shape=partialRectangle;connectable=0;fillColor=none;top=0;left=0;bottom=0;right=0;align=left;spacingLeft=6;overflow=hidden;" vertex="1" parent="35">
                    <mxGeometry x="30" width="150" height="30" as="geometry">
                        <mxRectangle width="150" height="30" as="alternateBounds"/>
                    </mxGeometry>
                </mxCell>
                <mxCell id="38" value="" style="shape=tableRow;horizontal=0;startSize=0;swimlaneHead=0;swimlaneBody=0;fillColor=none;collapsible=0;dropTarget=0;points=[[0,0.5],[1,0.5]];portConstraint=eastwest;top=0;left=0;right=0;bottom=0;" vertex="1" parent="28">
                    <mxGeometry y="120" width="180" height="30" as="geometry"/>
                </mxCell>
                <mxCell id="39" value="" style="shape=partialRectangle;connectable=0;fillColor=none;top=0;left=0;bottom=0;right=0;editable=1;overflow=hidden;" vertex="1" parent="38">
                    <mxGeometry width="30" height="30" as="geometry">
                        <mxRectangle width="30" height="30" as="alternateBounds"/>
                    </mxGeometry>
                </mxCell>
                <mxCell id="40" value="Row 3" style="shape=partialRectangle;connectable=0;fillColor=none;top=0;left=0;bottom=0;right=0;align=left;spacingLeft=6;overflow=hidden;" vertex="1" parent="38">
                    <mxGeometry x="30" width="150" height="30" as="geometry">
                        <mxRectangle width="150" height="30" as="alternateBounds"/>
                    </mxGeometry>
                </mxCell>
                <mxCell id="90" style="edgeStyle=orthogonalEdgeStyle;rounded=0;html=1;exitX=0.5;exitY=0;exitDx=0;exitDy=0;entryX=0.5;entryY=1;entryDx=0;entryDy=0;entryPerimeter=0;startArrow=ERmandOne;startFill=0;endArrow=ERoneToMany;endFill=0;" edge="1" parent="1" source="41" target="25">
                    <mxGeometry relative="1" as="geometry"/>
                </mxCell>
                <mxCell id="41" value="Loan" style="shape=table;startSize=30;container=1;collapsible=1;childLayout=tableLayout;fixedRows=1;rowLines=0;fontStyle=1;align=center;resizeLast=1;" vertex="1" parent="1">
                    <mxGeometry x="590" y="490" width="180" height="90" as="geometry"/>
                </mxCell>
                <mxCell id="42" value="" style="shape=tableRow;horizontal=0;startSize=0;swimlaneHead=0;swimlaneBody=0;fillColor=none;collapsible=0;dropTarget=0;points=[[0,0.5],[1,0.5]];portConstraint=eastwest;top=0;left=0;right=0;bottom=1;" vertex="1" parent="41">
                    <mxGeometry y="30" width="180" height="30" as="geometry"/>
                </mxCell>
                <mxCell id="43" value="PK" style="shape=partialRectangle;connectable=0;fillColor=none;top=0;left=0;bottom=0;right=0;fontStyle=1;overflow=hidden;" vertex="1" parent="42">
                    <mxGeometry width="30" height="30" as="geometry">
                        <mxRectangle width="30" height="30" as="alternateBounds"/>
                    </mxGeometry>
                </mxCell>
                <mxCell id="44" value="id" style="shape=partialRectangle;connectable=0;fillColor=none;top=0;left=0;bottom=0;right=0;align=left;spacingLeft=6;fontStyle=5;overflow=hidden;" vertex="1" parent="42">
                    <mxGeometry x="30" width="150" height="30" as="geometry">
                        <mxRectangle width="150" height="30" as="alternateBounds"/>
                    </mxGeometry>
                </mxCell>
                <mxCell id="45" value="" style="shape=tableRow;horizontal=0;startSize=0;swimlaneHead=0;swimlaneBody=0;fillColor=none;collapsible=0;dropTarget=0;points=[[0,0.5],[1,0.5]];portConstraint=eastwest;top=0;left=0;right=0;bottom=0;" vertex="1" parent="41">
                    <mxGeometry y="60" width="180" height="30" as="geometry"/>
                </mxCell>
                <mxCell id="46" value="" style="shape=partialRectangle;connectable=0;fillColor=none;top=0;left=0;bottom=0;right=0;editable=1;overflow=hidden;" vertex="1" parent="45">
                    <mxGeometry width="30" height="30" as="geometry">
                        <mxRectangle width="30" height="30" as="alternateBounds"/>
                    </mxGeometry>
                </mxCell>
                <mxCell id="47" value="issued_at" style="shape=partialRectangle;connectable=0;fillColor=none;top=0;left=0;bottom=0;right=0;align=left;spacingLeft=6;overflow=hidden;" vertex="1" parent="45">
                    <mxGeometry x="30" width="150" height="30" as="geometry">
                        <mxRectangle width="150" height="30" as="alternateBounds"/>
                    </mxGeometry>
                </mxCell>
                <mxCell id="54" value="Category" style="shape=table;startSize=30;container=1;collapsible=1;childLayout=tableLayout;fixedRows=1;rowLines=0;fontStyle=1;align=center;resizeLast=1;" vertex="1" parent="1">
                    <mxGeometry x="20" y="10" width="150" height="170" as="geometry"/>
                </mxCell>
                <mxCell id="55" value="" style="shape=tableRow;horizontal=0;startSize=0;swimlaneHead=0;swimlaneBody=0;fillColor=none;collapsible=0;dropTarget=0;points=[[0,0.5],[1,0.5]];portConstraint=eastwest;top=0;left=0;right=0;bottom=1;" vertex="1" parent="54">
                    <mxGeometry y="30" width="150" height="30" as="geometry"/>
                </mxCell>
                <mxCell id="56" value="PK" style="shape=partialRectangle;connectable=0;fillColor=none;top=0;left=0;bottom=0;right=0;fontStyle=1;overflow=hidden;" vertex="1" parent="55">
                    <mxGeometry width="30" height="30" as="geometry">
                        <mxRectangle width="30" height="30" as="alternateBounds"/>
                    </mxGeometry>
                </mxCell>
                <mxCell id="57" value="id" style="shape=partialRectangle;connectable=0;fillColor=none;top=0;left=0;bottom=0;right=0;align=left;spacingLeft=6;fontStyle=5;overflow=hidden;" vertex="1" parent="55">
                    <mxGeometry x="30" width="120" height="30" as="geometry">
                        <mxRectangle width="120" height="30" as="alternateBounds"/>
                    </mxGeometry>
                </mxCell>
                <mxCell id="58" value="" style="shape=tableRow;horizontal=0;startSize=0;swimlaneHead=0;swimlaneBody=0;fillColor=none;collapsible=0;dropTarget=0;points=[[0,0.5],[1,0.5]];portConstraint=eastwest;top=0;left=0;right=0;bottom=0;" vertex="1" parent="54">
                    <mxGeometry y="60" width="150" height="30" as="geometry"/>
                </mxCell>
                <mxCell id="59" value="" style="shape=partialRectangle;connectable=0;fillColor=none;top=0;left=0;bottom=0;right=0;editable=1;overflow=hidden;" vertex="1" parent="58">
                    <mxGeometry width="30" height="30" as="geometry">
                        <mxRectangle width="30" height="30" as="alternateBounds"/>
                    </mxGeometry>
                </mxCell>
                <mxCell id="60" value="name" style="shape=partialRectangle;connectable=0;fillColor=none;top=0;left=0;bottom=0;right=0;align=left;spacingLeft=6;overflow=hidden;" vertex="1" parent="58">
                    <mxGeometry x="30" width="120" height="30" as="geometry">
                        <mxRectangle width="120" height="30" as="alternateBounds"/>
                    </mxGeometry>
                </mxCell>
                <mxCell id="61" value="" style="shape=tableRow;horizontal=0;startSize=0;swimlaneHead=0;swimlaneBody=0;fillColor=none;collapsible=0;dropTarget=0;points=[[0,0.5],[1,0.5]];portConstraint=eastwest;top=0;left=0;right=0;bottom=0;" vertex="1" parent="54">
                    <mxGeometry y="90" width="150" height="30" as="geometry"/>
                </mxCell>
                <mxCell id="62" value="" style="shape=partialRectangle;connectable=0;fillColor=none;top=0;left=0;bottom=0;right=0;editable=1;overflow=hidden;" vertex="1" parent="61">
                    <mxGeometry width="30" height="30" as="geometry">
                        <mxRectangle width="30" height="30" as="alternateBounds"/>
                    </mxGeometry>
                </mxCell>
                <mxCell id="63" value="max_loan_days" style="shape=partialRectangle;connectable=0;fillColor=none;top=0;left=0;bottom=0;right=0;align=left;spacingLeft=6;overflow=hidden;" vertex="1" parent="61">
                    <mxGeometry x="30" width="120" height="30" as="geometry">
                        <mxRectangle width="120" height="30" as="alternateBounds"/>
                    </mxGeometry>
                </mxCell>
                <mxCell id="64" value="" style="shape=tableRow;horizontal=0;startSize=0;swimlaneHead=0;swimlaneBody=0;fillColor=none;collapsible=0;dropTarget=0;points=[[0,0.5],[1,0.5]];portConstraint=eastwest;top=0;left=0;right=0;bottom=0;" vertex="1" parent="54">
                    <mxGeometry y="120" width="150" height="30" as="geometry"/>
                </mxCell>
                <mxCell id="65" value="" style="shape=partialRectangle;connectable=0;fillColor=none;top=0;left=0;bottom=0;right=0;editable=1;overflow=hidden;" vertex="1" parent="64">
                    <mxGeometry width="30" height="30" as="geometry">
                        <mxRectangle width="30" height="30" as="alternateBounds"/>
                    </mxGeometry>
                </mxCell>
                <mxCell id="66" value="color" style="shape=partialRectangle;connectable=0;fillColor=none;top=0;left=0;bottom=0;right=0;align=left;spacingLeft=6;overflow=hidden;" vertex="1" parent="64">
                    <mxGeometry x="30" width="120" height="30" as="geometry">
                        <mxRectangle width="120" height="30" as="alternateBounds"/>
                    </mxGeometry>
                </mxCell>
                <mxCell id="68" value="Publisher" style="shape=table;startSize=30;container=1;collapsible=1;childLayout=tableLayout;fixedRows=1;rowLines=0;fontStyle=1;align=center;resizeLast=1;" vertex="1" parent="1">
                    <mxGeometry x="370" y="40" width="180" height="150" as="geometry"/>
                </mxCell>
                <mxCell id="69" value="" style="shape=tableRow;horizontal=0;startSize=0;swimlaneHead=0;swimlaneBody=0;fillColor=none;collapsible=0;dropTarget=0;points=[[0,0.5],[1,0.5]];portConstraint=eastwest;top=0;left=0;right=0;bottom=1;" vertex="1" parent="68">
                    <mxGeometry y="30" width="180" height="30" as="geometry"/>
                </mxCell>
                <mxCell id="70" value="PK" style="shape=partialRectangle;connectable=0;fillColor=none;top=0;left=0;bottom=0;right=0;fontStyle=1;overflow=hidden;" vertex="1" parent="69">
                    <mxGeometry width="30" height="30" as="geometry">
                        <mxRectangle width="30" height="30" as="alternateBounds"/>
                    </mxGeometry>
                </mxCell>
                <mxCell id="71" value="id" style="shape=partialRectangle;connectable=0;fillColor=none;top=0;left=0;bottom=0;right=0;align=left;spacingLeft=6;fontStyle=5;overflow=hidden;" vertex="1" parent="69">
                    <mxGeometry x="30" width="150" height="30" as="geometry">
                        <mxRectangle width="150" height="30" as="alternateBounds"/>
                    </mxGeometry>
                </mxCell>
                <mxCell id="72" value="" style="shape=tableRow;horizontal=0;startSize=0;swimlaneHead=0;swimlaneBody=0;fillColor=none;collapsible=0;dropTarget=0;points=[[0,0.5],[1,0.5]];portConstraint=eastwest;top=0;left=0;right=0;bottom=0;" vertex="1" parent="68">
                    <mxGeometry y="60" width="180" height="30" as="geometry"/>
                </mxCell>
                <mxCell id="73" value="" style="shape=partialRectangle;connectable=0;fillColor=none;top=0;left=0;bottom=0;right=0;editable=1;overflow=hidden;" vertex="1" parent="72">
                    <mxGeometry width="30" height="30" as="geometry">
                        <mxRectangle width="30" height="30" as="alternateBounds"/>
                    </mxGeometry>
                </mxCell>
                <mxCell id="74" value="name" style="shape=partialRectangle;connectable=0;fillColor=none;top=0;left=0;bottom=0;right=0;align=left;spacingLeft=6;overflow=hidden;" vertex="1" parent="72">
                    <mxGeometry x="30" width="150" height="30" as="geometry">
                        <mxRectangle width="150" height="30" as="alternateBounds"/>
                    </mxGeometry>
                </mxCell>
                <mxCell id="75" value="" style="shape=tableRow;horizontal=0;startSize=0;swimlaneHead=0;swimlaneBody=0;fillColor=none;collapsible=0;dropTarget=0;points=[[0,0.5],[1,0.5]];portConstraint=eastwest;top=0;left=0;right=0;bottom=0;" vertex="1" parent="68">
                    <mxGeometry y="90" width="180" height="30" as="geometry"/>
                </mxCell>
                <mxCell id="76" value="" style="shape=partialRectangle;connectable=0;fillColor=none;top=0;left=0;bottom=0;right=0;editable=1;overflow=hidden;" vertex="1" parent="75">
                    <mxGeometry width="30" height="30" as="geometry">
                        <mxRectangle width="30" height="30" as="alternateBounds"/>
                    </mxGeometry>
                </mxCell>
                <mxCell id="77" value="image" style="shape=partialRectangle;connectable=0;fillColor=none;top=0;left=0;bottom=0;right=0;align=left;spacingLeft=6;overflow=hidden;" vertex="1" parent="75">
                    <mxGeometry x="30" width="150" height="30" as="geometry">
                        <mxRectangle width="150" height="30" as="alternateBounds"/>
                    </mxGeometry>
                </mxCell>
                <mxCell id="78" value="" style="shape=tableRow;horizontal=0;startSize=0;swimlaneHead=0;swimlaneBody=0;fillColor=none;collapsible=0;dropTarget=0;points=[[0,0.5],[1,0.5]];portConstraint=eastwest;top=0;left=0;right=0;bottom=0;" vertex="1" parent="68">
                    <mxGeometry y="120" width="180" height="30" as="geometry"/>
                </mxCell>
                <mxCell id="79" value="" style="shape=partialRectangle;connectable=0;fillColor=none;top=0;left=0;bottom=0;right=0;editable=1;overflow=hidden;" vertex="1" parent="78">
                    <mxGeometry width="30" height="30" as="geometry">
                        <mxRectangle width="30" height="30" as="alternateBounds"/>
                    </mxGeometry>
                </mxCell>
                <mxCell id="80" value="url" style="shape=partialRectangle;connectable=0;fillColor=none;top=0;left=0;bottom=0;right=0;align=left;spacingLeft=6;overflow=hidden;" vertex="1" parent="78">
                    <mxGeometry x="30" width="150" height="30" as="geometry">
                        <mxRectangle width="150" height="30" as="alternateBounds"/>
                    </mxGeometry>
                </mxCell>
                <mxCell id="81" style="edgeStyle=orthogonalEdgeStyle;html=1;exitX=-0.011;exitY=1.067;exitDx=0;exitDy=0;entryX=0.5;entryY=1;entryDx=0;entryDy=0;rounded=0;endArrow=ERoneToMany;endFill=0;startArrow=ERzeroToMany;startFill=0;exitPerimeter=0;" edge="1" parent="1" target="54">
                    <mxGeometry relative="1" as="geometry">
                        <mxPoint x="158.01999999999998" y="322.01" as="sourcePoint"/>
                        <Array as="points">
                            <mxPoint x="95" y="322"/>
                        </Array>
                    </mxGeometry>
                </mxCell>
                <mxCell id="85" style="edgeStyle=orthogonalEdgeStyle;rounded=0;html=1;exitX=0;exitY=0.5;exitDx=0;exitDy=0;entryX=0.5;entryY=0;entryDx=0;entryDy=0;startArrow=ERmandOne;startFill=0;endArrow=ERzeroToMany;endFill=0;" edge="1" parent="1" source="72" target="2">
                    <mxGeometry relative="1" as="geometry"/>
                </mxCell>
                <mxCell id="86" style="edgeStyle=orthogonalEdgeStyle;rounded=0;html=1;exitX=1;exitY=0.5;exitDx=0;exitDy=0;entryX=0;entryY=0.5;entryDx=0;entryDy=0;startArrow=ERmandOne;startFill=0;endArrow=ERzeroToMany;endFill=0;" edge="1" parent="1" target="19">
                    <mxGeometry relative="1" as="geometry">
                        <mxPoint x="340" y="305" as="sourcePoint"/>
                    </mxGeometry>
                </mxCell>
                <mxCell id="87" value="" style="shape=image;verticalLabelPosition=bottom;labelBackgroundColor=default;verticalAlign=top;aspect=fixed;imageAspect=0;image=data:image/png,iVBORw0KGgoAAAANSUhEUgAAAqwAAAH4CAIAAAAAVygbAAAACXBIWXMAAA7EAAAOxAGVKw4bAAAgAElEQVR4nOzdd4wsW34f9nMqp47VYWa6585NL+7yLWlSFLXWMkgiCdMCbf5hGrAogyAkW7ABCjBgGwYtCbKCA03BCbZh2DBgmDAE2HIgRFukSYpeUsss8u1y971349zpnpkO1aGqKyf/Uff268nh9kzPTH0/WGCnamqqf31fh2+dc+ocurbRIgAAAJA/zKoLAAAAgNVACAAAAMgphAAAAICcQggAAADIKYQAAACAnEIIAAAAyCmEAAAAgJxCCAAAAMgphAAAAICcQggAAADIKYQAAACAnEIIAAAAyCmEAAAAgJxCCAAAAMgphAAAAICcQggAAADIKYQAAACAnEIIAAAAyCmEAAAAgJxCCAAAAMgphAAAAICcQggAAADIKYQAAACAnEIIAAAAyCmEAAAAgJxCCAAAAMgphAAAAICcQggAAADIKYQAAACAnEIIAAAAyCmEAAAAgJxCCAAAAMgphAAAAICcQggAAADIKYQAAACAnEIIAAAAyCmEAAAAgJxCCAAAAMgphAAAAICcQggAAADIKYQAAACAnEIIAAAAyCmEAAAAgJxCCAAAAMgphAAAAIBrVamvP/rCd7Ecv+pCCKsViquuAQAAIBe0UnXt3uNiuUYpwzCMbU1WWw+32ocHAADIA1FW9UZLLVbmeyjDsCwXx9EKq0IIAAAAuEIMy+mNVrm2Nt/jzkyj33Fta4VVZRACAAAArkpZX6s2Wyz7+ts2DPxRv2uOB6utag4hAAAAYPnUYkVvtERZne8Z9btGr7PCko5CCAAAAFgmQVL0RksrVed7rMnQ6HXDwFthVcdCCAAAAFgOhmGqjXalvj7f4zrWqNd1ZtMVVnUKhAAAAIAlKFWberM1v/s/CoNRvzsd9Vdb1ekQAgAAAN6KUijpjbakaPM948Gu0eumabLCqs4DIQAAAOCSBFGqNtqFsj7fY02NUa8b+O4Kqzo/hAAAAIALo5RWG61qozXf47n2qNdZ+SSAF4IQAAAAcDHFSl1vtjleyDbjOBr1OhOjt9qqLgEhAAAA4Lxktag3W7L6+bI7k+Ge0esmSbzCqi4NIQAAAOBsvCBWG61ipT7fMzPHo17H95wVVvWWEAIAAADOUG209GaLEJpt+p4z6nVm5ni1Vb09hAAAAIATFco1vdniBSnbTJJ41OuOh3urrWpZEAIAAACOISuFarOlaKX5nonRG/U7cbTKxX+XCyEAAADgAI4Xqo1WqdqY77GtyajX9dzZCqu6CggBAAAAn6vUN/RGizJMthn47qjXtabGaqu6IggBAAAAhBBSKOnVZksQ5WwzTROj1x0Pdldb1ZVCCABYprLe5HgxDLwbvmoIACySZLXabKuF8nzPdNQf9btRGKywqmuAEACwTJX6BscLYeAjBADcCizLVZvtst6c73Fm01G/69rWCqu6NggBAMvEsCwhhGXZVRcCAGcr19b0Rpt584YNA8/oda3JcLVVXSe6ttE6+ygAOBnH8WqxohTKgiAJ0uvexMBzg8BzrIltjqMoXG2FAHCIVqxUm21RUuZ7jF5n1O+usKSVQAgAuDxeEPXm5uIqoseyJobR64SBdz1VAcApREmpNttasTLfY44Ho343DPwVVrUqCAEAl6Q329X6BqGvpxEtaNoH7z2u13S9WjZGk8HQ+NanT63Zm7uK09Tod3N4nQFwczAMW222KrX1+R7Xtkb9jjMzV1jVamFMAMCFUYZZ23ycXUlwHPsv/PM//KM/8kMPtjaPHvlie+f/+sVf+j//4T+KolhvtkVZ3d95mibJtZcMkHdlvVlttFnu9bdeFAZGr2OOB6utauXQEgBwQZS27r+vaEVCyDuPHvydv/HvrjXqp//Ffn/wM3/zP37y7AUhxLXNzotPSJpeR6kAQIhaKFcbLUnR5ntG/d1Rv5PibUgIqxWKZx8FAG80Wg8KpSoh5Lu/89t/7u/89XLp7HeQpqo//Ge/79Mnz7p7+7wgchxvW5OrrxQg7wRRrrfu19Y2OV7I9lgTY//Vk9l0tNrCbg6EAIALUAvl+voWIeT9dx/9vf/wb4iicM4/5DjuB773y1/7nd8fjSeSrHruLJ+jkACuB6VMba29du/xfPy/58x63efjwV4c353lf94eugMAzo3SrXc+EkSpWNB+/n/4L0vFCwdoYzT+i//aX53N7MBzt598fBU1AkCp2qg2WvOr/zgKjX53avRWW9XNhJYAgPNSi5VsWrGf/Ikf/xP/zLdf4gyKLMdx8gd/9HWW46Mw8D1n2TUC5JqilZrtR2W9OZ//ZzzY23v1mefctdX/loVZdQEAt0Y2FEDT1H/pX/zzlz7Jj//Yn1cVhRBSrJwxnBAAzo8XxObmo9aD92W1kO2ZTUfbT74+3H+V4H6ck+EWQYBzoZSqxQoh5Mvf/Z2CwF/6PJIkfvd3fvuvffWfSIpGKcX4ZIC3pzfb1cbnXdu+axv9rm2OV1jSbYGWAIBzESSFYVhCyBc/fP8tT/Xl7/kuQgillBfEJVQGkGPFSu3+e98+TwBJHA32tl89/QYSwDldVUtAqdqgFAkD7o75ogCt9bW3PNX9e+3sh1J17SrmEk7TBGsYwp0nq4Vqo53N2JGZGPtGr5tg8P9FXFUI0Jttlrt8kynAjbW+1njLMwjC60HL5Vrz9CMvJ47C5YaA2toxkyECrJBSKC+u/RMGnmtbaZJU6+un/NUtNdzfubqTY0wAwMV4/tve32/bt+ymgEp9Y9UlAJyGFyRekFZdxVW5lSFg+8nHhNArOjnA9ZMUbWPrXULIeDx9y1MZo9e9ld0Xn1zNXYIYbAgA53JVISCO0CsDd0rov+68/+zZ8z/xnV96m1N98uRp9oPvOXEUvm1lV6/74lurLgHgMI7j1VJVK1bnezzHMscDzMV5IegOADiXIPDiOGJZ7rd+9w/+wo//2Nuc6je+9ruEkCgMbkUCIITkeaFVuMnMiSEpmt5sK1qJECIpBUkpjAe7Rg+LA50XBvADnE+aZouOfP0b33rV2b30aT7+429tv+oQQrCGKcDb85xZ98Unvc6zKHzdAFCpb9x/79sxGdc5YdpggPMKA6+sr6WE7PcGf+4HvnK5k/y1v/2zQ2Ocpsn+zrMUE5kBLIPvOVOjRyjNpgtkWFYrVmS1EAZeFAarru5GQwgAOK84jnhBEmVlp7vb2lh/9GDromf4n//+P/hHv/LrhJDxYM+2MJkJwDK5M3NmjjieF0SZEMILUqnaYDned2ZpisB9PIQAgAvwbKtQrjEs+5u/9Xvf8dEX1poXaHL89d/4rf/0v/hvCSG+5/Q6zwj6LAGWLY6i2XQU+K4oKdlcNZKiFauNNEk81151dTcRQgDABaRp4tpWsVJLU/Irv/4bD+/fu7d5rsW4f+H//uW/+3P/VZqmcRx1nn8Tk5oBXJ3Ad7OFgxWtQAhlGEYtlNVCOQoD3DtwCEIAwMXEURj4XqFYjZPkV379NydT6/13H8nSiROV9PrD//y//u//p//lf0vTNE2S3e3PAqwgDHD1XNuyJkOW47K5BTleKFZqvCD6rp0k8aqruyno2sa5rmMAYFE2d1DW3igI/Fe+/Cc/+uIH7z1+VK/rlVJpNB73B8Ynnz39w69/8zd/63fjOCaEhIG/u/1p4Lmrrh0gX9RCudpsS7KabaZpavQ648Hl7/G5SxACAC6J44Xa2mahXDvzyDRNp6MeljYBWKFybU1vtrO1QAkhvucYvQ4WG0R3AMAlJUk8M8czc0Qp5Xlh/uGyKAoDczLo7TyzJgbGJwOskOfMzPGAYdmsSYDj+EJZFyU58Jw4x+kcLQEAyyHKKi+ItbV7vCCGgTfc2wkCF43/ADeNrBb0ZltWP78AHvW7Rq+zwpJWCC0BAMsRR2Hgu4WyzvFC4DnD/R2soAFwA0VhYI6HcRSKipY14MlqsVipxXGUw9SOEACwTKVqg+OFKPTN8XDVtQDAiXzXNkc9yjCyUiCEsCynlaqSogW+d1sW9VgKdAcALJMgSpRhkySerzoIADeZKKt6s60WyvM94+HeqNdJ8jGrN1oCAJYpjqM4CnEXAMBtEUehNTHCwBNlhWU5QoisFIrVRprEfg4mGUQIAACAvAs8d2L0KKXZgEGGYdViRdGKYeDf7SWIEAIAAAAIIcS1zdl0xHGcICmEEF4Qi5U6xwuea9/VNT8RAgAAAF6L42g2HfmeI0gyly1BJKslvZGmiefMVl3d8iEEAAAAHBD63nTUT9NUVouUUkoZtVBWi5UoDMLgTo35RQgAAAA4hudY5njAspyYTTLIC8VyTRAl33OS+I4sQYQQAAAAcLwkiW1z7DkzQZQ4XiCEiJJSrjUJSV3bWnV1S4AQAAAAcJow8M3xIIkjSdEYhiGEKlqpUNazeUJXXd1bQQgAAAA4m+fa5mhAGVZSNEIIy/GFki7KSuC7t3eOcIQAAACAc0nTxLEmzmzKCyIvSIQQQZTLepMyjHc7ewcQAgAAAC4gCgNrMozCQJJVhs2WICoUKrUkjnzPWXV1F4MQAAAAcGG+50xfTzL4ZgmiYlVWC2Hg3aJJBhECAAAALsmZmbY55nhBEGVCCC9IpWqD5TjPmaVpuurqzoYQAAAAcHlxFFpTI/BdUVLYbJJBRStVGkma3PwliBACAAAA3lbgu1OjRwhRtGwJIkYtlBWtFIV+GPirru5ECAEAAADL4dqWNTFYjhcXliDiedH37CS5iZMMIgQAAAAsTRJHM3Pku7Ygyq8nGZTVcrWZkvQGLkGEEAAAALBkYeBNR/00SSS1QCmllCpaSStWoigM/Ru0BBFCAAAAwJXwnJk1HjAsK71ZgqhQ1gVR9n0niW/EJIMIAQAAAFclSRLbmri2xQsSL4gkW4JIXyOE3IQliBACAAAArlYU+uZ4EEehpGgMwxJCFK1YLNesqZEmyQoLQwgAAAC4Dr5rT0d9hmGyJYjGg11nZq62JIQAAACAa5KmqTObOtaE44XB7stVl0Po2kZr1TUAAADACjCrLgAAAABWAyEAAAAgpxACAAAAcopbdQF3H2WYan3j9GNcZ+ZYk+upBwBuLIZlK7X17Gfbmpw0yyzL8WW9eeZhAGdCCLhyDMNWG2eMvpwM9xECAIBhuPnHhSiruy8/PfawYqU+PyyOIoQAuDSEgCuXJPGo3z32V6KkqMUKISSKwustCgBuOrVQ5nghCoOjvypVG9dfD9xJCAFXLk0So9c5up9h2a13PiKEeK49Ge5de10AcAOl2f95ri3JarFSG/V3Dx0hqwVeEJMkicOAF6VrrxDuFAwMXJn1zcccLyRxvLf9WZqmqy4HAG4Qc9QnhBQrx1zxZzutyTBJVzndLNwNaAlYjUp9XSmUCSF7O0+Pae6jVJJVSdZYjvM9ZzYdHfq9rBYIoa5tMiyrqCVRVibGfhy9XpNKUjRRUliOD3zXta343H0NDMMqWokXREqp585cZ3Z0UmtRVhmG9V07TVNZK0iyNjNHgeeedE6OF2S1wPNikiaebXmuffQYWS0Skrq2xTCsrBVFSQ6DwLXNYxtCM4Ioq4VyksTmZLjambcBrsLMHOvNTV4QZbXo2p/PLMswTKFcJYRMR/1s6tmjWI7PPgTSJHEd69CIAY4XeEGKoiD0PUGUZLXIMGzgu/ZsSt5cjWRv8+yYxb+lDCPJGiHEc2YpIsidgBCwArJS0JubJJs4+sh4QEGS1++9Kyy08gW+u//qqe858z2tBx9QSl89/Ub74QfZWhTWxIijiFKmvrF1qL/QHA/6uy/P/KYUJHlj611e+Pxxkzju7760JsPFwxob9yVF2335aX3jfrYiVhh4J4UArVhpbj7KKsyEvre389RfiAKU0vbDD9I03Xn6jfajD+cHJ3G8u/3Z4scfIYRSptrYKFUbLMdne/Rmu999MTPHpz87gNslTRNzPKjU10vV+uK7oFCuUcr4ru0fl6dFSak2WlqpurhzNh3t7Tydf8FrpWp9fWti9JI4rjY+v3HJmZl7258lSUwI0YqVaqMV+N72Z3+0eCqtWF3bfBSF/otP/nCJTxZWCGsHXDeW5dqPPmRY1nWs/Z1nh34ryerm4y9wHG9bk/GgO5uOKcPISkErVa3JMHnzRV5ttCilaqGcxPGo3zHHg8D30iRZ23xYrNTTJBkP9iZGzxoPPNfWCpWS3jDHA3JypwMviPcef5HjhCSOR4PdyXDPtiZJktTWNimli59BpWqD44Xs6mHc706MXuC58XELYytaaeP+e5Qyge+OBrsTY9+zLV6Uao2258zCwM8Oo5RWGy1KiFaqRoFv9DrZ8tuipChaaTrqz8tmGHbrnW/TStUoDEb93emonySxpGiFcs21rSj03+a/C8BNwLBcpbZGCBkP9nzPqdTWBFGaDHvzHsNG6wHHC6N+13ftkt7kON6xpp77+lq/WKmVa2vW1JgM97M160RZzZoEPOf1qrWSomVDDpVCcdTvTIb7ge8paoEXJcpQZzYlhAS+W66tcRzvzKaLDXK1tU1BlMbD/ZuwBi4sBVoCrtv61jssx8dxtLf95NCvKMOs3XtMKTPY3Z4Y+9lOazKsNlp6s12urQ33dxaPT5L41ZNvzBvl1EK5UK6labr95Oth8KYRzyITo7ex9W6tuTnY2z6pqrXNxwzDhoG/8+wb824Fa2L4rt1oPThwIzKlhBCGYbeffHxKcz3DsM32Q3LkKsQcD5rtR832w+0nHydxvPDkaUrIzvNvZi0WtjW5985HgigpWsl+c5XfaD3gRcmaGL3Os+wz0TbH1sRoPXhfb7Y6z1e8GBfAckWh79qmrBaL1fpkuE8IEURJktU0TQ61z82NB3u+62Rf5IQQ2xz7ntNsPyxVG+PBgQGGHC/sbX+WNaHZ1oQQojfbxXJtuPeKEBJH4Ww6KpT1UrUxf+8zLKdqJfJmvALcDRgYeK2qjZasFgkhe9tPjnbVq1qJF6Q4iiaj3uL+7P2f/eGi4d6rxW65kt4khEyM/c8TQCZNjV6npJ94T1HWg0gI6XWezxNAZjrq29bkQP9CmhJCxsPdUxIAIUQplDheSJK413m+2AKRpmm/+4JQqhYqh/7EHA3mfRZpmtrmiBCS9TgQQhiWLZR1Qsh4sLs4jtK1Td9zZKVAKT2lHoBbIl38YWr0CSGl6ut5gbIfzPHnjYJHZQmAYTnKMJKiZa10vCCSg2+QKAwWO9FmU4MQwnL8vD8uuw4plHWGef01USjrhFLbHOOW5rsELQHXR1aLerNNCBn1u4e6ujOcIBJCKCXtB+8f+lWapkfvBTr0NSxKCiHk2GlDAs+hlOEFcd4Iv0gQ5ewhjq3KmU0LJf3QzjA4LQHMi/E9J+tiXJQksedYwpGnEwYHBhZkz27+kcTzr9NAfWPr0B/yvEAo5QUxODiICeAWoos/zMxREsfZ8D3PsYqVOiHEHA9O+mOG5fRGSytVOV44/CvKJOnnb8ZDlwpR+Pp7nWGY7D3rOTPfc0RJKZRr01GfEJJ9DkxPfnS4jRACrgnL8etb7xBCXNs8dtoA8uYL79jbBef9eYsOHZltHjsAME3TNE0XB+gd/cOj39aZOIoO/OHr64kz7mnMmiji8PgrhjRJGPZwMYefzsHfZscf++wC3yW+u/DpCXBHpGk6HfcrtfWS3uA4nmHZ0PdOmh8wGzSTff07M3P+oZHNLZiSYz4ujtlcaDCYDPea7UclvTkd9bPbfKIotDEI925BCLgm61vvsCwXR+HRoQBz2dA2z7VPmiv0dL5r84K4OLx/ThBlkqaL9xcsCjyHEMKyHMNyyZEhfpKizYcdXaQYhxAyH8N/iKwWjd7Osb86SdaGkZK08/xbFy0G4PZID/1gjvqV2rpWrGaNYfPRQkf/RC1WOF6Io/DV028sNhOeOW35SayJUVvfEiVFUrSsOxKjAe4ejAm4DnpzU1YKJBsKcNxA+oxtTrLh7oeukinDZJMKnG5i9Aghlfr60d7xcm0t++2xkiTOxhlV6uuHfiUpWrFSywYlXIgzm4aBL6sFSVYP/SrrEzk6+cHpojDwHIth2KMnVM/xjwNwS9BDPwS+59oWpVRStDRNzGOGBL4+MhtA47v2YgLIJiYnhFxi0EyaplOjRwgpVRvZiJzpCH0Bdw1CwJUTJSW7GTfwXKVQ0pvto//TSjohJI6jUa/LstzG1ntKocQwLGUYUVZb999r3X8v6w48hWub1sTgeKH14ANZLVDKUEpFWV2/986ZV96Dve0kjqv1jewWIEIIL4jV+kb74YeT4f5JTQinSNO0331OCGk9eL9YqXO8QCgVJaXZflRttPZ3np0ysukk/d1tQsjavXcKZT07oSBK9fWtjfvvNTbuX/RsALfF9M3192w6OnBPzUFZU6KkFrJLDpbji5X62uaj7Lcn9QaebmL0SJoWyjVRUpzZFDfi3j3oDrhyLP+6SVyQ5Kp0fLvczBxlo3Mnxr4oK4VyraUeGBtojgenjAaa63WeJ3FU0pvthx/Odzozs/P8m6fPTBxH0c6zP16797hS36i8Wfg4TdNRvzMaXHJdA2dm7m5/1mw/zO4VfPNAYfflp8eOQDyT79qD3Zf19a21zceL+5M4Pu7yCOCOmE2NZOM+w7LTU1vjZ9NRpb4hiHL70edv/9FgVytWBVG6XAiIo9AyR6+HBKIv4C7CZEHXgCZJ7NrWKf9zZlbgvx4bPzPHYeAlSRzHURj41mQ0Hu6Nj3wTe47l2uaRgXKpbU2y+T3SNLGt8bi/a/Q655lYN44jczzwPTeOwjiOzHF/uLd9dCY+SojvOY5tHrqZ8Fih75njYRT6SRIHvjsd9Qe7L4Mj7QqUUte2Dp2TEhJH4aFZgDzXdmbTNE3jOIqjwHdtZzbt773MhiAA3HqUkDR1bcudmYujY8PADzzn6PQAvufMJ9hO09SaDBnKpGkShf7MHBn7HXM8SJMk8BzPtubNb3EUOjNz8Z2Y9RVkj3v0gqFQ0uMo6ndfXMEThhWjaxuXHDMCAAB33trmo0K5Nh7uZfMIwR2DMQEAAHA8luOzEUu4L+CuQggAAIDjVesblFJnNsVMXHcVBgYCAMABlGE2H30hTRJJ0dIkOWl+M7gDEAIAAOAAluUEUUri2JoYo353PmwZ7h4MDAQAAMgpjAkAAADIKYQAAACAnEIIAAAAyCmEAAAAgJxCCAAAAMgphAAAAICcQggAAADIKYQAAACAnEIIAAAAyCmEAAAAgJxCCAAAAMgphAAAAICcQggAAADIKYQAAACAnEIIAAAAyCmEAAAAgJxCCAAAAMgphAAAAICcQggAAADIKYQAAACAnEIIAAAAyCmEAAAAgJxCCAAAAMgphAAAAICcQggAAADIKYQAAACAnEIIAAAAyCmEAAAAgJxCCAAAAMgphAAAAICcQggAAADIKYQAAACAnEIIAAAAyCmEAAAAgJxCCAAAAMgphAAAAICcQggAAADIKYQAAACAnEIIAAAAyCmEAAAAgJxCCAAAAMgphAAAAICcQggAAADIKYQAAACAnEIIAAAAyCmEAAAAgJxCCAAAAMgphAAAAICcQggAAADIKYQAAACAnEIIAAAAyCmEAAAAgJxCCAAAAMgphAAAAICcQggAAADIKYQAAACAnEIIAAAAyCmEAAAAgJxCCAAAAMgphAAAAICcQggAAADIKYQAAACAnEIIAAAAyCmEAAAAgJxCCAAAAMgphAAAAICcQggAAADIKYQAAACAnEIIAAAAyCmEAAAAgJziVl0AQE5tPvoCpTQM/L1XT1ZdC8AdV6mvl/U1Qkiv88yZmUs//9a7X2IYJgz8zvNvLv3kVwohAGA1RFmllFKK1jiAK8cwLMcLhJAresdxPM8wbJokV3HyK4UPIAAAgJxCCAAAAMgphAAAAICcQggAAADIKYQAAACAnEIIAAAAyCmEAAAAgJxCCAAAAMgphAAAAICcQggAAADIKYQAAACAnEIIAAAAyCmEAAAAgJxCCAAAAMgphAAAAICcQggAAADIKYQAAACAnEIIAAAAyCmEAAAAgJxCCAAAAMgphAAAAICcQggAAADIKYQAAACAnEIIAAAAyCnuis5brq2x7FWdHOAOoJQSQliO15vt5Z45jqPJcH+JJ2y07i/xbADXT5K17IeS3lSL5aWfn1KGEMJy/FW8Wfrdl0s/59yVhQC9yQvSFZ0c4M5gOa7aaC33nGHgLTcElKrNJZ4NYIXUwvITwBzDslfxZrnSEIDuAAAAgJy6qpaAXucFwyBhAJxofetdSmkUBP3dF8s9c5Ikyz3hztNvLPeEANespDeLlTohZLC37dnW0s/ffvghZZgo9Pe2nyz95FfqqkKAa5tXdGaAuyRJYtuarLqKM3iuveoSAN6KGgbZD6HvXcXrOSUpJSRN0lv3ZsHFOgAAQE4hBAAAAOQUQgAAAEBOIQQAAADkFEIAAABATiEEAAAA5BRCAAAAQE4hBAAAAOQUQgAAAEBOIQQAAADkFEIAAABATiEEAAAA5BRCAAAAQE4hBAAAAOQUQgAAAEBOIQQAAADkFEIAAABATiEEAAAA5BRCAAAAQE4hBAAAAOQUQgAAAEBOIQQAAADkFEIAAABATiEEAAAA5BS36gIAcmo66lNKojBcdSEAd59rm6M+IYQEgXcV5x8P9iilcRRdxcmvFF3baK26BgAAAFgBdAcAAADkFEIAAABATiEEAAAA5BRCAAAAQE4hBAAAAOQUQgAAAEBOIQQAAADkFEIAAABATiEEAAAA5BRCAAAAQE4hBAAAAOQUQgAAAEBOIQQAAADkFJYSBgC4Oyr1dYZhp6N+FAbX84i8KJX1tSSOjF7neh4Rlggh4O7jBalSX5cUjeMEhmXjKIyi0DbHE6OXxLdv9WuAo4qVWrHS4AWR5XhKaZLEURgGnjMe7HquvZKSRFmtr9/b33l2bV/GmUptneV425pc2+NynFDWm1Ho38YQwLDs+uY7ve6LKPRXXctqIATcZdM20RYAACAASURBVJTS+sb9UrWxuJPjBY4XJFmt1jcGe9vTUX9V5QG8PY4XWvffFyR5cSfDsILICqKklaqzqbG/8yxN02sti9K19iNBkhWtZI4H1/rQcBHVeksplOrr9/ZePVl1LauBEHBnMQy7cf89WS1km3EUeY4VBJ4kq5KsUYahDNNoPRBEebC3vdpSAS6HF8T2oy9wHE8ImU1H1nTkOVYUBoIoSUqhWKnLakEr6S2O7774NE2TayusWK4JkhyFgTUZXtuDwiVMjF65tqaVqpKiec5s1eWsAELAnVVbv5clgDgKB7vb1tSY/4pSWqlvVBstSmm5tuY5s8XfAtwW9Y37HMcncbzfeWab4/n+wPcC3zPHg5LerK9vyWqxXGuOB3vXVlilvkEIGfW7190CARcUhb41GRYr9cbG/VdPv7HqclYAdwfcTZKsZr0AYeC//OzjQ9/xaZqO+t2dZ39M0pQQUtvYYhh2NYUCXJakFNRCmRAy2NteTACLpkZvMtwnhFTrLYa9phe5WigLohSFAToCbgWj1yWEiLIqKYVV17ICaAm4m4pvxgH0dp6dNPrPd22j39WbbY7j1WIla7ekDCPJWpomnjNjWU5Wi4IohaHvzMw4Ck96OFFS1GIlDPzZ1MClD1yPYqVGCPGc2enftUa/U6jUOI7XihVzPCSEUMpIyiVf5FHoW5MzXuSyWiSE2Ob42MMEUZYUjRfEKAyc2TQMDoxHEySZZfnAd+M4kmRVVgpJmviufVJLtSDKslqglPEcy/MccpF3n1IoCYLEsJzvOa5tHf2gEESZ5Q4Uk6Zp4DvOzDzz6Qe+e+gfk+V4QZRJmrqOdcqfMwzLCyLDsp5rp8nZPTiirKZpEvreKf9RGJYVRJlS6jqzo/9EWWNAoVxTtKJ3am13EkLA3STKKiHENsenv99Gg91KbY1hOUlWsxDAcUL74QdR6O/vPG89eJ9Smh0ZR2H3xSe+5yz+OcOyteZmoawz7OsXUths9zrPXDt3byS4fqKkEELMszrd0ySxzXGp2hBllYyHhBCO59sPP4jCYH/naevBB2e+yPXmZnHhRV5tnPEilxSVEOL77qH9hXKt2mgJorRQXDrc3xkPP++n0JttrVjd33larDQUrTjfPx7sDfdfHXj6stpsPcje6ZnA97ovvnX6v0aG5fj1e4+zb+t5JaPBrtHvLn5H6s2WVtL3d54VKzVFK833W5Ph/s6zk05eqa1lFxWHjqnWN8q1tZk5dreP/6ejlNbWt8p6c77Hc6z+7rZ/8P6Otc1HhXKt13nOcny1sZG1YqZJst95NpuODp1TlJRG64GkaNlmFPqDvVdHD7PNSRYCRv3uSc/rrmK1QvHso+C2aWzcp5RaE+PM72NFK/GClKZpdjnFsly5tkYoLZT12dQw+l3XsURJ4XhB1oqLtxJwvLj1zkeyVpyZo/Fg15lNGZYTZUUr6bY5inHzIVyxRusBpdSaDAPv8NftIbJalNXCkRc5KZRrr1/ktinKx77Iha13PlIOvMhZUVZPf5E3Nh5QSseDvcW7ziiljdYDQZTGg92J0bPNMcOyvCgphZJrm/Pb+QplPWsqYHne2O9MjV6SJJKsymrBd+0w8LLDBFG69/jbOF5wbXM83JsY++7MZBiqr91jGJZSao4HJ94iSOnmow+z78Wp0RsP9qypEYVBtb4hK5o1+bzrsFCqCpIiKRoniEZvZ2r04jiWFE2UlDgK59/NvCAWK/UkibOelziOipWaIEoTo7d4db62+Yhh2OHeq/mzOKT98INCSSeEuLZlm2PftXlRqtY3ojBYTGZaqSpKCsMwpWrDtia2NWEZjuOFQkm3rcli84NWqmZXMqN+dzLqxVEoqYViubZYfIZhuVK1zjDMYiDLCbQE3EGU0uzi5swPR0JI4LuKVppfDGWyyUb63RfZpmdb9975NkGURUmZv3nWNh+xHNd9+YljTbM901G/2X5UrNQq9Y1e5/kynxLAIW9esefpfkqSmBBy9EVujgfzF6rrWFvvfCSIsiQp3ucv8scsx3dffupYk2zPdNRvth8WK/VKvdXrHHM1LEoKZRhCSHCwRSFN0/2dp4SQefu/NTFa999XCqVStXEorHO88PLTP8yOtK0Jy3JaqVqs1Ow3ZdQ3HlBKJ8P9xVt7zPGgUK6tbT46/V+jUlvLGlH2d57Ov/Jtc2xbk9aDD8p6c2L0DhWz/eTj7MPEtiYMwxYrtUK5dtLdxVkfBy+IxXJtfipFK7IcH0Xh/CkcUtabslpM03Tv1ZPPR3hQWl/farQeeI4V+Aeig6KV5v9dDNrZfPwFUVIqtfXsH5kQwgvSWvuRM5vuvXqSdSvY5ticDNsPP6xvbFlTI4nj+dmyuJbPoVEYGHgHpWmafXycZyQUw3CEkENvMELIdOGDwPec0PcIIYLwuiVTlJTs0mSeADKT4R4hZLHlEOBKvHmRZ/cHno7lshf54Uy8+CIPPDd7kfPi0Rf5ge+t8esX+fFtqCzHE0LiKDzaThAG/qERADNzRAjhhcUOAkIIsa3J4pHW9MBhLMspWjFJ4mFv59BDWJPhoe6Mo0rVJiFkOuovXvQTQlzbGvW72W8P7V+8nJhNDUIIL4inPET2T1RcmKGkUK4RQsyTZyWpNtuEEKPXOTDGM00Huy89Z1ZttA4d7zmz+X+XNE2yRLI4XYTebFGGmQz3FwcW+K7t2ialzKHPqKz9IEtveYOWgLspDDxeEDleOPNIjuez4w/tDw7uiaKAF6V5qsg+AlheaD/84ODfUUIIxwuUUowQhCsV+q4gSuw5QgDHCeS4pHtoTxgGvCjNLwe5s1/kzNG5B7JWh2Nf+pRhStWGopUYhmE5YT444MB3D82e2oHC4igghNB5YbyQHXPsuDnPmWUX+seilGZv3kMJIOPMpvqRr9tD4SnrZWDZ0747zPGgtrYpSkp28z2lVCtVycHUtYjjheyEs+PuVZ6O+pX6+qGdnntgpGT2L7ZYVZaZqs1WtbGxeGS2XxAPzC6VpmmaJpQyDMsuthDkAULA3RT6HtFKhZI+Huye8mXMC9J8KO/rXfMW04N/degc2efRofbV7EDXNgkhlGHSnL2X4Jr5vquSilbST78dn+W47LJvoX1+3pVw6Ev0wEkYhiGEMGe8yI+EgDgmhHAcfygHC6LUfvghy/FJEtvmOGv/50WpUNIPfpfTo4Vl55kXkoWGLG0cdc7vsGNnyY3jiFBKGeZNSTR7+APFHJ9wDkiTxBwNyrW1UrXhOTOlUGYY1rEm0Qk3X8yvLsLjxjHEUcgfuZ459DSPprEsHcon3PV3KDtyHE8pc/S0eYAQcDdl06QIklxttE6Z0Htt8xGlNI7CQ636Z8quBqLA7zw/12hkgKWbGr1KbV0QpdNf5Hpzk2HZMPDs2WVe5GEYXOhFPv9uFkR5sWW+Um+xHG9NjF7n8zmMtWKlUNIvOpVhVhjHH98gf3pDfZqmvueIksJy/KG+CUKIJGuB557nxrwzTYz9cm2tUNYHe9vFsk4ImY5OvJMzu8GPUsqx3NGgIMmqf8zwpqPhbCEoZdFBELsvPnHO8d896wM6syflTspjF0geeK49MfYJIdVGq76+dbSvi+OF9sMPshHC/e7Lk64qTjy/Y4WBL0jK4R4HSjEgAK5HFAbZGJRqo1XfOOZFTgip1NezWbMGu9sXuoeeEOI5szDwBVG+0Is8CoNsNMCBnn5CBFEkhDiz6WLzgFbSszNeqLAoDDzX5gVxfufbHMtxSuGMN2DWMV+tbxzaz3K83mwvazGRMPBta0IpU6o21WIljqJsAMSx0jTNblEuHlzohLy5leNQ4/85CyBvbpZexLDc0SbMrHcgQAiAu2S492pmjgkh5dra/Xc/qjZa2agZRSvWN7a23v0o6wgY7u+c8uY8SZqmw/1XlNKN+++pxQrDspRSQZLXNh+1HrxfqR3uwAO4Ckavm402L+tr99/9Un3jfqFcyyalKVbqm4++UFu7R7LhZicMSj9FmqbDve1jXuTtR60H7x/tpZ7LbkPnxQNX5Nn4g2Kllo1SZDmu2X5YKOvk+G61Mwz3tgkha5uP54uDEEJ4UVrfejdr1j7FxOh5rq0WK+tb74qySillWK5Q1u+9821JEk9Gx3fbX0J2x6DebFPKmOMzssVwfydNkkp9I/s3yQii3HrwfpIkl5jyeWLsp2labbQWExvL8ZuPPmw/+kL2X2EuS2z5bAlAd8Cdlabp3vZnjdaDUrXB8aLebOvN9sEDkn735aVnNp1NR+PBbqW+sbH17uL+KAxm1vFzuAIsV5ome9uf1da3StUGxwtlvUn0A4Pbkzga7L26/IvcHJ/4Ij9homJCSDY3UaFcW/zqGg/2tFJVVosPP/hO37UFSUmSeLj3qrZ+j1w8BLi2Ndzfqa1tth9+ON+Zpun+qyf1jftnjgjefflJs/VQK1a0YmW+Mwy8/Z2nF20vOcX8XkFCyMQ4IwTEUbj36sna5uO1zceNjfu+53I8zwuS58w6z791ykyOJ/GcWa/zrNl+1HrwfhLHvuewHM8LYjZtQBwduHdDLVYIIb6bxxCAyYLuONuazKYGw7CEUkpoNgIgCLzpqL//6unRuUgpIWmaurZ1aGZQSknguY59YF5VZ2Z67ixNkiSKoijwnJljTfud59e8gDrknGNNzFE/TZMwCOI4jMIg8F3XNq3xYL/z7NC0MK9lL/IjU2kF/vEvcoZhOU6glHqeY5vj3s6zU17kYegXyzVBlAPPmd+AEMeRNR7EcRTHUZqm5mgw2H3pu3aapq5tzoukhAS+69rWoQ77NEncmbXYKu45lmubaZLEcRQFnjkZDvdeubZFCfXcmWubp/TxpUliTQ3PncVhkE2fbE2GvZ3nR79rQ99zbfPg3UM0TRPXtuZzG1BK0jT1HOvo1GQsx8tqwbXNrHfydGHgmeMBpZRhWVFSfM+dGPv93ZeH5jMWJIVS4trm4oU7y3KCJIe+tzgbYOC5tjURRJll2awd1HWs8aCbNVHMFcq1UrURR2E+11OlaxuHbwgBAIC3USjra5uPA9/d/uzjVdeySlvvfiSI8uKsRDfQ/fe+xAvScH9nPNhddS0rgDEBAABLZk2MwHcFUc4mycknRSsJopzE8dG5+m+OQlnnBSkKg5PmMLjzEAIAAJZvuL8TBp5/8WHtd0Y2S8901LvJ84alSZokcb/74qJ3SN0Z6A4AALgSOZx+jhAiKVp9fStbvTeOou0nH19iWN91YljupPXW8wB3BwAAXIkcJgBCCMcL2QQGvufsv3p6wxMAISTPCYCgJQAAACC3MCYAAAAgpxACAAAAcgohAAAAIKcQAgAAAHIKIQAAACCnEAIAAAByCiEAAAAgpxACAAAAcgohAAAAIKcQAgAAAHIKIQAAACCnEAIAAAByCiEAAAAgpxACAAAAcgohAAAAIKcQAgAAAHIKIQAAACCnEAIAAAByCiEAAAAgpxACAAAAcgohAAAAIKcQAgAAAHIKIQAAACCnEAIAAAByCiEAAAAgpxACAAAAcgohAAAAIKcQAgAAAHIKIQAAACCnEAIAAAByCiEAAAAgpxACAAAAcgohAAAAIKcQAgAAAHIKIQAAACCnEAIAAAByCiEAAAAgpxACAAAAcgohAAAAIKcQAgAAAHIKIQAAACCnEAIAAAByCiEAAAAgpxACAAAAcgohAAAAIKcQAgAAAHIKIQAAACCnEAIAAAByCiEAAAAgpxACAAAAcgohAAAAIKcQAgAAAHIKIQAAACCnEAIAAAByCiEAAAAgpxACAAAAcgohAAAAIKcQAgAAAHIKIQDgdlCLlXuPv8hy/KoLAYC3Vamtb9x/b9VVEEIIt+oCAOAMgiTrjbZWqhJC9Earv/ty1RUBrB6lNPshTdPVVnIharGiN9uipBBCCiXdmhqrrQchAODmopTRm61KfWO+J4rCFdYDcHOs33tHLVYCz91+8vGqazmXxTRPCAl9j9DVVkQIQgDAjVWs1vVGm+OFbNOaDI1eJwz81VYFABd1NM0bvc6o311hSXMIAQA3jqwW9WZLVovZpufMjF7HmU1XWxUAXEKp2qg2WvM0b46Ho/4NSvMIAQA3CMcLerNdrNSzzTgKjX53avRWWxUAXIKsFvVmW1YL2abnWEave9PSPEIAwE1RqW/ozfZ8uNNkuGf0ukkSr7YqALioY9J8rzsd3cQ0jxAAsHpaqao324IoZ5u2OTb6Xd+1V1sVAFxCtb5RXUjz4+He6AaneYQAgFUSZVVvtNRiJdsMPNfod2bT0WqrAoBLOJTmZ+Z41Ov4nrPaqk6HEACwGgzD6s1WubaebaZpavQ648HuaqsCgEu4vWkeIQBgBUp6U2+05tP/meOB0etEYbDaqgDgohiW1Rvtcm0t20zTxOh1b1GaRwgAuFaKVtKbbUnRsk3XNo1e17XN1VYFAJdQ0pt6o81yr79Jp6P+qN+9XWkeIQDgmvCCqDfbhXIt24zCwOh3zNFgtVUBwCUohZLeOJTmO65trbaqS0AIALgO1UZLb7bnm+PBrtHr3K45zwGAEMILkt5sHUjzvY45vq1pHiEA4GoVyjW92eIFKducTUdGrxP47mqrAoBL0JvtaqM13xwNdke3PM0jBABcFUnR9EZbKZSyTd+1jX7XNserrQoALuFImjeMXvcOpHmEAIDlYzmu2miX9Wa2mSTxqNcdD/dWWxUAXIKkaHqzrWh3M80jBAAsWbm2pjfaDMtmm1OjZ/S7MZYABrhtWI7XG63SPM3HsdHvTIb7q61quRACAJZGLVb0RkuU1WzTmU2NXsdzZqutCgAuoVxb05tthnmd5idGb9TvxFG02qqWDiEAYAkEUdabLa2kZ5th4Bu9jjUZrrYqALiEw2nemhr9O5vmEQIA3gqltNpsV+sb8z2jftfodVZYEgBcjiDKerOtlarZZhh4Rq97t9M8QgDA5RUrdb3Z5ngh27QmQ6PXDQNvtVUBwEUdTfNGrzPqd1dY0vVACAC4DFkt6M22rBazTc+ZGf2OY01XWxUAXMJxab4TBv5qq7oeCAEAF8PxQrXRKlUb2WYcRaN+Z2L0VlsVAFyCrBb1ZutAmu91nFmO0jxCANxukqwqWknWihwvsCzPclwSR1EURWHgWBNzMljuaN5KfUNvtihlss3JcN/od5I4XuJDAMA14HhBb7SKn6f50Oh3p/lL8wgBcFspWrG+cV8Q5UP7GZYTWE4QJUUr1tbv2eZ41O96rv2WD6eVqnqjLUivH842x0a/67/1aQHg+h2T5nudJMljmkcIgNuHYdhG+0Hhzf14GUkSa3q1Ui5Np6YxmtiOk+1XixW1WLGtSb/74nJLfIqSUm22tWIl2wx81+h1Z1PjLZ8FAFw/pPlDEALgluF4ofXg/XkDwGZr4wf/zPd+35/+ngdbm4uH7ff6//irX/vlX/vqk2cvCCFqodx++GHn+TcvlAMYhq02W5XaeraZpumo1xkNdpf0VADg+oiyojfa6oE035lNR6utauXo2kbr7KMAbgZBlNsPP2A5nhDy4P69n/qJf/l7/9k/SSk96fg0TX/xl371v/sff348mRJCojDoPP/mOQf9lqoNvdnOHosQYo4HRq9zubYEAFi6ja131WIl8NztJx+ffuTRNG/0OmOkeUIIQgDcIizHbT76Ii+IhJAf/ZEf/Kv/xl/iuXM1ZZmm9df/7s/9wR9+nRAS+N7O02+c3vmnaCW92ZKUQrbp2pbR67i2+dbPAACW5pwhoKQ39UYLaf4krFYorroGgLNRSlsPPhAlhRDyr//UT/yVn/qLLMOc829FUfyhP/t91mz2rU+fsBwnyepJU4Dxglhfv19fv8fxIiEkCoPh/qvB7ssozMUdwwC3SKGsC6IcR9F0dPyQfkUrrW0+LlUb2fz/rm32Os8nxn4+BwCeBGMC4Hao1DckRSOE/MBXvvwXfvzHLvrnDKU//Vd+avtV5/f+6cdKoVSqNqaj/qFjqo2W3mzPN8eDXaPXTdPkLSsHgGvGC2K12S6Wa9lmFAZGv2OOBqut6mZCCIBbgGW5Sn2dELKx3vyZf/unL3cSSunf+mv/zr/6l396YIyqzbY5Hs6/4AtlXW+0eVHKNmfTkdHvBJ67lOIB4DohzV/IeRtUAVaoWKlnDXr/5l/+SUHgL30eVZH/0k/+K4QQjuMrtTVCiKRoG/ffW9t8nCUA33P2tj/be/UECQDg1imUa/ff+9I8Acymo+0nHw/3d5AAToGWALgFskW9GvXaV7783W95qh/+c9//83//H7zq7Jb0JssLZb2Z7U+SeNTrjod7b1srAFw7SdH0RksplLNN33WMfsc2x6ut6lZASwDcdCzHZ6MBfujPfO/bn42h9Ed/5IcIIdxCApiOei8//SMkAIDbh9L6xv3NR1/IEkCSxMO9V6+efh0J4JzQEgA3nay+vlXvB773y0s54Xd86Yvzn53Z1Oh1PcdaypkB4JoJoiiIb9K80TP63TgKV1vS7XJVIYBSSk6ewgXg/LKJARhK33n0YCknvP9mbsHZ1NjvPCeE0HPfbXhbpMkyO0HxdoabRi2U3yz9RwkhzswcDbqeMyN37+2cpmmaXt3pryoElPRmfX3rik4OOaRp6rJOxXOcIsuO62ol/fHBBQjujCdf/+0lnm196131TW8rwA2kaEVFu5tz3tjWZPflp1d3/ruVmODu4s43OeA5LTFSAADcXlfVEuA5s1G/e0Unh1xRtJKkaNnk/8tijMaEkCSOZ+YIE4ieyZoYeV5mDW6mUrXJLlwbBJ7r2GYSRyss6SoEvnel57/CEJB1zwC8pSSJJUVL09SazQqa9vYntB03jmNCCMOyxUo9z0uJn9NJsywDrJAoKWqxEkdhti6AIMmCJBu9Dq4/LwTdAXDTzeftefL0xVJO+NnT54ub5dra/fe+VKo2lnJyALhOcRS9/PSPrKmRberN9tY7H2lv1guGMyEEwE3nzKbZ4Njf+K3fXcoJv/Y7v5/9sP/qqTMzCSEsxzdaD9oPP5jfjggAt0UYePuvnu5uf+Z7DiFEkOT1rXfX7z0W3kwEDqdACICbLk3TrGvpl3/1q677tt1jQRD+4i/9KiHE9xxranRffKvffZHdWCyrxfbDDxsb91kW82cA3DK2OX715OvG/g4hKSFEK+lb736p2mituq6bDksJwy2QpqlWqvq+ryjyR1/84G1O9b/+H//wN772O4QQY38nu27wXXs66jMMk81LKClasdpIk8TDUDiAG+zYpYRdx7ImQ5bjsmXHFa1YKOtxFAY+VgM5HkIA3AKB5xQrNZbl/vhbn33fn/6eUumSL9ogCH/mb/0nvh+Egd/rfD4yIE1TZzZ1ZlNeEHlBYhhGLZQVrRQGfhT6S3oSALBMx4YA8vqun7Hv2oKocDzPcnyhpIuSEnhufOfuHXh7CAFwO8RxpJWqURz/9u/903/uB3/gEmsJJmn6N/+jv/fZk+eEkMHuy6PrBEZhYE2GURhIssqwLC+IxUqd4wXPtZc7AR8AvL2TQkAmDLzpqJ+miawWKaWCJJf1JqXUtc3rL/UmQwiA2yHwXEGUREmxZrOvf/OT7//Kn+L5C+SAOI5/9j/7b/7fX/sqIWQ2HRm9zklH+p4zNfqUMtkgQUlWS3ojTRPc8gpwo5weAjKeMzPHA5blRVkhhMhqsVipxVGE3oE5hAC4NWbWRJZVXpR6/eE/+e3f/8qXv1uR5fP84Wg8+bf+vf8guynA95zd7U/JGXNxp85salsTjhcEUaKUUQtltVCOwiAM0DsAcCOcJwQQQpIkts2x59qCKHO8wLKcVqpKshr4LpYaIggBcLvMpiNekERJGU+mv/CLv2y7zruPHoiieNLxSZL877/w//z7f/tnd/f2CSG+53RffJLE55oXKI5Ca2KEgS/KKstyHC8UKzVeEH3XxsxCACt3zhCQCQPPHPXTJJHVAqVUEOWS3qQM487yvoIoXdvAHRRwy+jN9vzOH5Zlv+s7Pvr+r/ypdx490KuVSqXMUEoI2enu/uOvfu2XfvX/2371uuXftib7r54kl+ndp/pau1rfyDbSNDF6nfFgbynPBQAuZ2PrXbVYCTx3+8nH5/8rjhf0ZrtYqWebYeAbvU6e58RECIBbSVaLjdaDc04GEkfhqL87Mfbf5hEFSdGb7flMZL5rG72ObU3e5pwAcGmXCwEZRSvpzXZ2VzAhxLYmRm/Hd51l13gLoDsAbqUo9KejfhwGlGE4XqAnrHbvu/Z4sLu/8+zth/XFUTibGqHvCZLCchzHC4VyTRAl33PO2b8AAEt0oe6AQ8LAN8eDJIlltUApI4hSqdpkGDaH9w6gJQBuPUqppBREWRFEmRfEJI7jKIzCYGaOrmgBrsX+CJKmRq8zGuxexQMBwEnepiVgjuV4vdmeLx0ShYHR2zHHOeodQEsA3AVR6HvOzLYm1mQ4m45sa+I61tVNDOLa5mw64jhekGRCqaKVtFI1jsKrXvQTAObepiVgLk0S25p4jiWIEseLDMtqxaqkaKHvRfm4dwAhAOAy4jiaTUeB54qSwnI8x/GFsi5Isu85d29Fc4AbaCkhIPO6dyCOZKVAmax3oMGwrOtYZ91OfOshBABcXuC72QeQohUJIaKklPU1Qohr5/2+I4CrtsQQkPFc2xz1GZaVZI0QIiuFYqWexHG2yMhdhRAA8LZc27ImBsvxWLME4NosPQQQQtI0sa2Ja5u8IPFC1jtQkdVCGHhRGCzrUW4UhACAJUjiaGaOfM8RJJnj3qxZImPNEoCrchUhIBOFgTkexFEkqRrDMLwglaoNluU8Z5beud4BhACApQn9bM2S9PWaJSLWLAG4KlcXAjK+a09HA4Zh54uMl6r1JIn9u7XIOEIAwJJ5jmWOhyzLHVizJI6OrlsIAJd21SGAEJKmiWNN3JnJCyIviAzDqsWKrBbDwL8zvQMIAQDLhzVLAK7ah0ejhgAAFOpJREFUNYSATBQG5mQYR6GkaAzD8oJYqtZZjvcc6w70DiAEAFyV+Zol0sKaJQzD4N4BgLd3bSEg47v2dNRnGObz3oFKI0mS2947gBAAcLU8Z2aNByzHibJKCJHVQrFSS+Lobt93BHDVrjkEEELSNHVmU2c25QWRFySGYdRiWdFKt/reAYQAgCuXJIltjj1nJogSxwsMy2nFqpynWckAlu76Q0AmCgNrMozCQJJVhmV5QSxW6hzPe84sTS+xSOmKIQQAXJM3s5LF2axkfJ5mJQNYulWFgIzvOdNRnzKMrBQIIZKslaqNNEm829Y7gBAAcK08d2aO+wzLSVnvQD5mJQNYutWGAEIIyXoHrAnPC7woUYZRC2WlUApDPwr81ZR0cQgBANctW7MkV7OSASzd6kMAIYSQKAqtiRGFviRrDMvyfNY7IHiunSa3oHcAIQBgNT6flUxZmJWMu5uzkgEs3Q0JARnfc6ZGj1JGVrPeAbWkN9I08ZzZqks7A0IAwCr5rj0d9w/MSlZp3L1ZyQCW7kaFgIwzm9rWhOMFQZQoZdRCWS2UozAIb3DvAEIAwIqlaepYE2c2fd07wDBqsaJod2pWMoClu4EhgBASR6E1+f/bu9Pmto00D+DduG+A9ylLsuJxJpmp2drv/xW2aivHOhMnOilSvAECxA30vmgJpkhKlmU5kobP71UEAiTAuJt/9IVpEkeirLIsx/GCUaryghgFyzzPnvvstoAQAMCLcD3vaGVVMqNU47jXOu8IgG/tZYYAKg59ezbEGNPeAVFWrXKDEPICewcgBADwgkTBcjEb3n5mSYPk2aubdwTAt/aSQwAVeIvlYs7xgiDKGGNFN1WjlCbRi+odgBAAwMtCPs07Eot5R6puvrS6A4Dn9fJDAKK9A840iUNRVq57B6wqL0gvp3cAQgAAL1GaJq49KeYdca9t3hEA39qrCAFUHAb2lPYOGAghUVasSvOFzB2AEADAy7U570g1LGf60qs8AP4CBJEo8P2lEwWvY6GtYLnwFjOO5697BzST4/ilaz/vWUEIAOCl8z1nuZhzgiiI0qh/GkfBc58RAM8vjoLQd19LAqCyNPWcWRwFoqRijAfnvz97wx6EAABegZt5R6HnzJ77XAAAXyWOAmc6JHkeLBfPfS4IN9ud5z4HAAAAADwD5rlPAAAAAADPA0IAAAAAsKO45z4BAAB4DTDmOJ7jBYwZQvI0SbI0hkc9gdcOQsDTwAzTOXh//z6uM4PJXQC8OgzLlqotq9pkGHZ1OyG5MxvNRv0sTZ7r3AD4ShACnkaxCsQ9XtdUFgAAQogXpe7h3zle2HwJY8aqNI1SrX/672Dp/vXnBsDXgxDwNPI87x1/2PqSZpatSgMh9BIWhwIAPBzHC3tvf2A5nv7pe06wdKNgKYiypGiqYWHMMAzbOfi+d/IBCjh4jSAEPBFCts745AXRLNUQQq49dZ3pX35aAIDHqzT2aAJI4mjY+7O43aervHG82Nx7K6sGZph65/D848/Pea4APArMDviGMMat/b9hhkmicHh5/NynAwD4AoIoG6UqQihLk/M/ftls8E+TqHf8wfcWCCFRUjSz/AxnCcDXgZaAb6ja2hclhZC8f8fakJKiyYquGlYchbNRP01uPSOuXG9jzMxGfUlRNbPMccKof1oMQZIUXTUsSVbTJA6WrreY5dmDnknFsKxmlBXNZFkuDLyla282YxqlGi+Ii/kYM4xhVQVRno4uo21Psy1VWwzLzscDluN1syypeprES9deLuYIIVFWNaMkyVqWJcHSdWajtcMxxqpeklRNlFRC8mDpOtPh6sO1aN0ahf5yMdetqqIZDMslUWhPr4pH6gmSzLJ8nmdrZ8gwbKnWQgjZk6ssSx/y5QBQUDST/sewd5zf/e9n2Dve/9s/GYZV9VKxnmOp1mIYdjbui6KsGmVJUdMkCZbOYj7Z+iaCKCuaoWgmQcSeXD1whIEgyppZkhSd5DmtBNIkXt0BM0y51s7zbD4eqEZJM0oY42HveHNSgyDKulWJwsBzpopmqrolSHLoe64zjcMAIaSZFUXVeUFK4nAxH28+25rjBdUoSbLGCwKtBFz7Vtsnfd6Pa08IIZpZkVWdlll7ckXPB2NcrncQQp4zi8JbI6gkRVd1M03izToEfCUIAd+KZpToUIBx/4yWolWKbtZbB7wo0T9l1TBKtdHlyWI+LvYp1ToMw4S+176ZdzAbXWZpwnJ8o3OoGqViT6NUqyTdq4s/Plt36Gal1t4v+jgV3SzXO85sNB6crcYUo1yTFT2Ownr7gGFZhJC3mG8PAbUWy/GeM2sfvC8GT5nl+uDsY5JEe0c/YHzd2qRbVVFWR5cnxbGSojU6bwVJLraoumVVGucffy5+swVJKdc7rjOVVd2qNG8uAxmlau/4A60pFNWotQ/yPD/58D/5ylVoZqlc7yRxNB327v9aANgkygpCKE2i+x/xkiYRTah0f6pUa7MsF0dBs3uEMKYbjVJVEJXJ1fmtT5GUeudAUvRii2aUXXtydfHnPR+KMVNr75vl+qejzHKl2R1dnqz+9DIMW653sixN47j55ju6cXR5Ssj6DYMgyeV6x1vMECGt/Xd0o6KZZrl+9vtPVq1VrrVv9jWNcn1w9vvq12JVm5VGd3X2hG5VNaM8OP+4ukXVrSxNyvVOUQXpZkXVS72TD4gQQoisGrKq84J0dfHH6ulV6h1FN2ejy3u+E/A4EAK+CY4XGntHCCFvMd+MropmdA6+Rwj5njMf9+Mo1IxStbVf7xwGvptE4erOje7bJI7sySBNkjRNEELNvSN6jzK9unCdaZrEgqTUWm+6h38//+OXtQS9SpJVWhHEUTC6PImCJcNyimbWOwccL/RP/722f631BmE0H/dD34vjcNtbXmu+eZcm8XR4QQixKk1J0eqdA0JIHIX25CrPM7NcpxWKa0+KpCKIEi+I4/7p0rWzNJE1s9ba5wWx1t5fqwFlRWc5fja6DH1PlJRyo8OwXK29TwdjOvNxtfmGYRjdqq5+27pVRQgt5nDrAB5DlFWEUOhvyb5rwmCpW1VRUjDGqzfZje7bybC3mI8xxpVG1yjVSrWW60yLPM0L4t53P2LMONOhMxslSaTqpVprX7eqge/dM6O40ujSBLCYj+fjQRKHvCBZ1WZz7zuE0NotOIOZeveQPpEyjsKc3PnEGlFSlT1zPhkE3kKU1VKtzXJ85/B7QVKGvWPPmXG8UO8eyope7xye/vt/ry8WY0Uz0zgeD06j0MeYMaxqpbmnmWXNLK897aLaerN0nenVRZrEulWpdw5lVTdLNVpyndlQVnXNLDN9tmjaZFhO0Qx6sZ/9fwG+FISAp4cxbr15xzBsEkfDjTiPMa533iKEJlcX83GfbrSnwzzPG923pUpz1D+93hMhhFCeZ2cffy5u03WrQhPAsHdcFIkoWPZOfuvs/625993Zx5/uOrFG9wghlMThxR+/0ib3PI8X83EcBXtHP+pWpag76EczLHfx569bGwA2Lgr1jj8QkiOElq799u//zXJ8nqVnHz/QdtTlYn7w/r84XlA0swgBi/lkubCLm/7lYp5nafftD4purb0/xwvF9S5dO8uzevtAVg1a55I8d+Yjq9I0yvUiBLAcr6gGQmgxg4oDPN5aA/v2feKiIw8jRNBNCfKcWVHGh71jVS+xHCerelGm6u1DjJnJ4Hw+GdAtrj1JomDvu3+Uqq27QoAoKdf9XNOrcf+MbqTJnuR5vX2wdJ3V/gvMMKHv9v78v89eCC+IxcksXZuQvNp8I8rqbHRJS18cBcOL44P3/+J4gRPE6zsWQq7OPxJCigA0G/dZXrAqjdUuEirPMrozQsiZjWTV0K2KrBm05HrOLGslLMcbpZo9uaKHGFYFYRwsF0l8q8MUPAkYGPj0Ks09SdEIIYOz31e7tylZNXhBJHlu3xR7inaVFd2QiNYlCI0H56sN9apuIYR8z1kPxYQML08FSd46oRkhxPECbXgf9k7Wzir0PWc2UvVP/Qv0oz1n9pAEgBCyp0Nyc3uRZxntL1zY06ImIoTQUQIcL64eSBMAw7IYM5KsYoZBCLEsxzC3/mXmee7anzpTvZuwUlysPR0ihCRZFaXrJlndLCOMl66dwkIu4FGSKEAIFQ3X97iZQRAWpYCWIPf27x+dQMTfFAGO4xXdRAitzRsKg2UcBrwg8oK09eNoLZEm0WRwvvbS5OqcECQr2tr28eXpZ68CIURIbs8+JY/Au57xtPpDnsQhHZnEr5TlPM+LBMBxvKzqtNbihfXqyHVmq40la98JIYSmAbP0qaeDNunBaIBvBFoCnpiqW6VqCyE0uTrf2jLPCyJCiCDSOfx+40XCbZSZtRsRXpQRQr7nbL5zmkQkzwVR3nrvIogSQojcMZUxCn06lXFVkjw0d8e3rzRP082N9KxWf90Zhi03OrpZ2RJcbrpRr4+No9WKI8tSQgjGGN+8WxKFvmsrumWW67Qp5bovACoO8FhxFCKEOP6hISDaGPqzVhKLyEv/vB4SREhz72j9DXkeIcQLQrKtG44eGCzdzfF9hJA4CgRRXhvH8MCyHEfh6i1H0UoX3+6jTNOE5fjVsixIcqWxp2jmWnzftP6dpAlCaHUwgT0dlusdQZJlRQ98l+MFSdHyLPOc+UMuAXwpCAFPieV42ie3dO2iLWsdxgihrZMF1kbpX/8M3i7n9MC7JgLkJL9rMXOSE4TQZsvEzctk9cCtH32PfO1yMN78LILI7V1w++C9rOpJFE6HvdB36ad1Dr/HtxMAQohs9mISgjDG6NOe9nSo6JZeqk2uzhmWkxQtS1NvARUHeCTaDCYpGi+I9zREY4xp4lxtNtteeLcVqK1ljAbo9WJ1+32yOyoBQgjZfNeHFeWt9RLaLIC3L0SUlO7RDwzD+p7j2lP6XcmqXml0abVzz7Gb55WliefMNLNsVuqB79JZmq492VIJgKcAIeAptd68Y1g2TeK1oa2raPdhFPqXJ7894iOi0JdVvZhWsEqQZJbl7mrAp80SLMuxHJel6/OdZNUIgyde7+z+Z6uoRklW9SxNzj7+tGXPL38sy9K1kzjiBVG7aVpY2DAaADye59pR6IuS0uge9Y7v7FCvNLqCKOVZ9qVPBqE/lhjj3slvDw/c6CYiCNsqAcwwsqJNhxdfdCYIoes8vZG/Edp2M4Bv7UznBdiTq/HgrNiF5Ti0Nb4/gD0d0kGFTP9UN6sIIQeGBH4zMCbgyVQaXVnVCSGD84/3TNn3l4ssTSRZLVoFKY4XKo3uZz+Ftm9blcZaDsAYNzqHzmx0171+nmd03F+ttb/2kqKZmll6yocb0Vm/aFuFcoP+TsdRuJoAdKtCmwEwc9+xd6GtL2aloVsVBH0B4CsRMuodI4RkVW/tv9ts6MYMU2vvl2pthNB4cPala1GkSUwb/9SVkUAIIYZhqs09fHe7uuvMsiyls/nXXqq3D6LQf8QCxteNB1uzyGYyILd2pr/3axOIjI3uxYcLlos4CjBmaq19QZKj0H/g4CTwCNAS8DQEUabLXCRRqOrWZuFECMVR4NpTkueTq4tG923n4P10dBkuPYSxqlvV5h7HC3meF8OJt4pCfz4ZlKqt/Xf/nI36i/k4y1JZ0SqNPU4QLzem+a0aD85U3dKtKi+Is1F/6Tk8L2hmudLozkb9tW6/r3J9o3DfLnRcsazq5XpnMR8TQlTdqrUP6KsMw2boi5f3WczH1eaedD2zy33KKwI7KQyWV+d/NPaONKMsHMmL+ThJ4ixNeEGQZE01SjTLToe9x81eGw/O9o5+bHTfTq4ufM/Js1TWzHK9I8kqx4t3NSjmWTrunzX3jtoH7+3p0JkOkzgUJaVU76i69devXhxHoaTo5VorSxLfszletKpNWgfeE2Xu50yHtfYBTRKQ5r8pCAFPoxhCLEhyWeps3adYQmsxH0uKZpbrdLWAgutM16YMbDW9uiB5Xq61K41u0XgQBsven7/ev2hgliYXf/7a2n8nKXqxABEhZDbsze5NHt8CfRYL7TgsrsK1J6KsCqK89szWB8rzzJmP6RpNDswMBE/BdaZJEtFVraqtN2uvpkk8HpytzYJ7uND3xoOzWmu/0X17a3uwLKYKbz8re4IxrrX3rUqD/oNHN8sYx9H6+MSHuK87YMvet3aej/uaWeZ4sVhlKM/z2eiyXO9sju95ILr4B2YYQvKFvX2ZRfAkIAQ8jTSJPrua1WrhHF2e0NHsdLJAFCxD31sbxTYbX2LMbM5wI4RMhz3XnoqyyvNClmdJHPre4iHdinEUnH/8WdFMXhAZhk2SOAy8ZOOO2ZmNfW/he1vmEayZjwd0GMTqRteeRMFybXJEuPRmo8tiBDUh5PLkt3K9I6saQihNkzj0Z+OBYVV4QSpaVn3P6R1/2OzjuOvL8ZypVWnkeebB45rAEwl97+zjT4pmKLrFcQLLcXmWpWkc+t7asjyF/tnvCOG1sf2+a+dZurbgrj25Cn3PsKqcIDIMEwV+FC49Z3bXqMDCYj72PUdWdY4XCCFpHPneYn00bp7ReumzffNR5M9Gl5vTGbZWa850yPFCsRBqHIXnH3+pNLscx5OcJEm0mI/pW60OqJxeXdB1jVbfKomC2ehySy2X50vP1oyy58wfuCA6eBzcbG+/bQXgNao0urR/YdiDJzYB8IrRNccuTz485G4EPBoMDAT/OTDGtBMR1hUB4FVTdYvl+CSOIAF8axACwH8Oq9rieIH2rTz3uQAAHok+agEh9JRTlsAdYEwA+E+w990/EMklRSeErD2lDQDwWqi6Vaq1OZ7nBSmOAmjS+wtACACvHsOwgigxDBuF/rB3DFOKAXilGIaVVR0htJiPx/3Tz46OBF8PBgYCAAAAOwrGBAAAAAA7CkIAAAAAsKMgBAAAAAA7CkIAAAAAsKMgBAAAAAA7CkIAAAAAsKMgBAAAAAA7CkIAAAAAsKMgBAAAAAA7CkIAAAAAsKMgBAAAAAA7CkIAAAAAsKMgBAAAAAA7CkIAAAAAsKMgBAAAAAA7CkIAAAAAsKMgBAAAAAA7CkIAAAAAsKMgBAAAAAA7CkIAAAAAsKMgBAAAAAA7CkIAAAAAsKMgBAAAAAA7CkIAAAAAsKMgBAAAAAA7CkIAAAAAsKP+H0PcoC4sTALRAAAAAElFTkSuQmCC;" vertex="1" parent="1">
                    <mxGeometry x="-170.00000000000006" y="780" width="366.43" height="270" as="geometry"/>
                </mxCell>
                <mxCell id="88" style="edgeStyle=orthogonalEdgeStyle;rounded=0;html=1;exitX=1;exitY=0.5;exitDx=0;exitDy=0;entryX=0.489;entryY=1;entryDx=0;entryDy=0;entryPerimeter=0;startArrow=ERmandOne;startFill=0;endArrow=ERzeroToMany;endFill=0;" edge="1" parent="1" source="32" target="45">
                    <mxGeometry relative="1" as="geometry">
                        <mxPoint x="678.9200000000001" y="610.99" as="targetPoint"/>
                    </mxGeometry>
                </mxCell>
                <mxCell id="91" value="Transaction" style="shape=table;startSize=30;container=1;collapsible=1;childLayout=tableLayout;fixedRows=1;rowLines=0;fontStyle=1;align=center;resizeLast=1;" vertex="1" parent="1">
                    <mxGeometry x="320" y="490" width="180" height="120" as="geometry"/>
                </mxCell>
                <mxCell id="92" value="" style="shape=tableRow;horizontal=0;startSize=0;swimlaneHead=0;swimlaneBody=0;fillColor=none;collapsible=0;dropTarget=0;points=[[0,0.5],[1,0.5]];portConstraint=eastwest;top=0;left=0;right=0;bottom=1;" vertex="1" parent="91">
                    <mxGeometry y="30" width="180" height="30" as="geometry"/>
                </mxCell>
                <mxCell id="93" value="PK" style="shape=partialRectangle;connectable=0;fillColor=none;top=0;left=0;bottom=0;right=0;fontStyle=1;overflow=hidden;" vertex="1" parent="92">
                    <mxGeometry width="30" height="30" as="geometry">
                        <mxRectangle width="30" height="30" as="alternateBounds"/>
                    </mxGeometry>
                </mxCell>
                <mxCell id="94" value="id" style="shape=partialRectangle;connectable=0;fillColor=none;top=0;left=0;bottom=0;right=0;align=left;spacingLeft=6;fontStyle=5;overflow=hidden;" vertex="1" parent="92">
                    <mxGeometry x="30" width="150" height="30" as="geometry">
                        <mxRectangle width="150" height="30" as="alternateBounds"/>
                    </mxGeometry>
                </mxCell>
                <mxCell id="95" value="" style="shape=tableRow;horizontal=0;startSize=0;swimlaneHead=0;swimlaneBody=0;fillColor=none;collapsible=0;dropTarget=0;points=[[0,0.5],[1,0.5]];portConstraint=eastwest;top=0;left=0;right=0;bottom=0;" vertex="1" parent="91">
                    <mxGeometry y="60" width="180" height="30" as="geometry"/>
                </mxCell>
                <mxCell id="96" value="" style="shape=partialRectangle;connectable=0;fillColor=none;top=0;left=0;bottom=0;right=0;editable=1;overflow=hidden;" vertex="1" parent="95">
                    <mxGeometry width="30" height="30" as="geometry">
                        <mxRectangle width="30" height="30" as="alternateBounds"/>
                    </mxGeometry>
                </mxCell>
                <mxCell id="97" value="type" style="shape=partialRectangle;connectable=0;fillColor=none;top=0;left=0;bottom=0;right=0;align=left;spacingLeft=6;overflow=hidden;" vertex="1" parent="95">
                    <mxGeometry x="30" width="150" height="30" as="geometry">
                        <mxRectangle width="150" height="30" as="alternateBounds"/>
                    </mxGeometry>
                </mxCell>
                <mxCell id="98" value="" style="shape=tableRow;horizontal=0;startSize=0;swimlaneHead=0;swimlaneBody=0;fillColor=none;collapsible=0;dropTarget=0;points=[[0,0.5],[1,0.5]];portConstraint=eastwest;top=0;left=0;right=0;bottom=0;" vertex="1" parent="91">
                    <mxGeometry y="90" width="180" height="30" as="geometry"/>
                </mxCell>
                <mxCell id="99" value="" style="shape=partialRectangle;connectable=0;fillColor=none;top=0;left=0;bottom=0;right=0;editable=1;overflow=hidden;" vertex="1" parent="98">
                    <mxGeometry width="30" height="30" as="geometry">
                        <mxRectangle width="30" height="30" as="alternateBounds"/>
                    </mxGeometry>
                </mxCell>
                <mxCell id="100" value="created_at" style="shape=partialRectangle;connectable=0;fillColor=none;top=0;left=0;bottom=0;right=0;align=left;spacingLeft=6;overflow=hidden;" vertex="1" parent="98">
                    <mxGeometry x="30" width="150" height="30" as="geometry">
                        <mxRectangle width="150" height="30" as="alternateBounds"/>
                    </mxGeometry>
                </mxCell>
                <mxCell id="104" style="edgeStyle=orthogonalEdgeStyle;rounded=0;html=1;exitX=1;exitY=0.5;exitDx=0;exitDy=0;entryX=0;entryY=0.5;entryDx=0;entryDy=0;startArrow=ERzeroToMany;startFill=0;endArrow=ERmandOne;endFill=0;" edge="1" parent="1" source="95" target="45">
                    <mxGeometry relative="1" as="geometry"/>
                </mxCell>
                <mxCell id="105" style="edgeStyle=orthogonalEdgeStyle;rounded=0;html=1;exitX=0.439;exitY=1;exitDx=0;exitDy=0;startArrow=ERzeroToMany;startFill=0;endArrow=ERmandOne;endFill=0;exitPerimeter=0;" edge="1" parent="1" source="98" target="28">
                    <mxGeometry relative="1" as="geometry">
                        <mxPoint x="408.9200000000001" y="640" as="sourcePoint"/>
                    </mxGeometry>
                </mxCell>
                <mxCell id="161" style="edgeStyle=orthogonalEdgeStyle;rounded=0;html=1;entryX=1;entryY=0.5;entryDx=0;entryDy=0;startArrow=none;startFill=0;endArrow=none;endFill=0;dashed=1;" edge="1" parent="1" source="159" target="22">
                    <mxGeometry relative="1" as="geometry">
                        <Array as="points">
                            <mxPoint x="820" y="260"/>
                            <mxPoint x="820" y="355"/>
                        </Array>
                    </mxGeometry>
                </mxCell>
                <mxCell id="159" value="&lt;span style=&quot;border: 0px solid rgb(56, 61, 63); box-sizing: border-box; --tw-border-spacing-x: 0; --tw-border-spacing-y: 0; --tw-translate-x: 0; --tw-translate-y: 0; --tw-rotate: 0; --tw-skew-x: 0; --tw-skew-y: 0; --tw-scale-x: 1; --tw-scale-y: 1; --tw-pan-x: ; --tw-pan-y: ; --tw-pinch-zoom: ; --tw-scroll-snap-strictness: proximity; --tw-gradient-from-position: ; --tw-gradient-via-position: ; --tw-gradient-to-position: ; --tw-ordinal: ; --tw-slashed-zero: ; --tw-numeric-figure: ; --tw-numeric-spacing: ; --tw-numeric-fraction: ; --tw-ring-inset: ; --tw-ring-offset-width: 0px; --tw-ring-offset-color: #fff; --tw-ring-color: rgba(69,89,164,.5); --tw-ring-offset-shadow: 0 0 transparent; --tw-ring-shadow: 0 0 transparent; --tw-shadow: 0 0 transparent; --tw-shadow-colored: 0 0 transparent; --tw-blur: ; --tw-brightness: ; --tw-contrast: ; --tw-grayscale: ; --tw-hue-rotate: ; --tw-invert: ; --tw-saturate: ; --tw-sepia: ; --tw-drop-shadow: ; --tw-backdrop-blur: ; --tw-backdrop-brightness: ; --tw-backdrop-contrast: ; --tw-backdrop-grayscale: ; --tw-backdrop-hue-rotate: ; --tw-backdrop-invert: ; --tw-backdrop-opacity: ; --tw-backdrop-saturate: ; --tw-backdrop-sepia: ; --tw-contain-size: ; --tw-contain-layout: ; --tw-contain-paint: ; --tw-contain-style: ; --darkreader-bg--tw-ring-offset-width: 0px; --darkreader-bg--tw-ring-offset-color: #181a1b; --darkreader-bg--tw-ring-color: rgba(55, 71, 131, 0.5); --darkreader-bg--tw-ring-offset-shadow: 0 0 transparent; --darkreader-bg--tw-ring-shadow: 0 0 transparent; --darkreader-bg--tw-shadow: 0 0 transparent; margin-top: 1.25em; margin-bottom: 1.25em; text-align: left; background-color: rgb(25, 27, 28); font-size: 16px;&quot;&gt;&lt;font face=&quot;Söhne, ui-sans-serif, system-ui, -apple-system, Segoe UI, Roboto, Ubuntu, Cantarell, Noto Sans, sans-serif, Helvetica Neue, Arial, Apple Color Emoji, Segoe UI Emoji, Segoe UI Symbol, Noto Color Emoji&quot; color=&quot;#dcd9d4&quot;&gt;&lt;b&gt;&lt;div style=&quot;&quot;&gt;GOOD&lt;/div&gt;&lt;div style=&quot;&quot;&gt;FAIR&lt;/div&gt;&lt;div style=&quot;&quot;&gt;POOR&lt;/div&gt;&lt;div style=&quot;&quot;&gt;DAMAGED&lt;/div&gt;&lt;div style=&quot;&quot;&gt;LOST&lt;/div&gt;&lt;div style=&quot;&quot;&gt;DISCARDED&lt;/div&gt;&lt;/b&gt;&lt;/font&gt;&lt;/span&gt;" style="rounded=0;whiteSpace=wrap;html=1;dashed=1;" vertex="1" parent="1">
                    <mxGeometry x="870" y="180" width="110" height="140" as="geometry"/>
                </mxCell>
                <mxCell id="162" value="&lt;span style=&quot;border: 0px solid rgb(56, 61, 63); box-sizing: border-box; --tw-border-spacing-x: 0; --tw-border-spacing-y: 0; --tw-translate-x: 0; --tw-translate-y: 0; --tw-rotate: 0; --tw-skew-x: 0; --tw-skew-y: 0; --tw-scale-x: 1; --tw-scale-y: 1; --tw-pan-x: ; --tw-pan-y: ; --tw-pinch-zoom: ; --tw-scroll-snap-strictness: proximity; --tw-gradient-from-position: ; --tw-gradient-via-position: ; --tw-gradient-to-position: ; --tw-ordinal: ; --tw-slashed-zero: ; --tw-numeric-figure: ; --tw-numeric-spacing: ; --tw-numeric-fraction: ; --tw-ring-inset: ; --tw-ring-offset-width: 0px; --tw-ring-offset-color: #fff; --tw-ring-color: rgba(69,89,164,.5); --tw-ring-offset-shadow: 0 0 transparent; --tw-ring-shadow: 0 0 transparent; --tw-shadow: 0 0 transparent; --tw-shadow-colored: 0 0 transparent; --tw-blur: ; --tw-brightness: ; --tw-contrast: ; --tw-grayscale: ; --tw-hue-rotate: ; --tw-invert: ; --tw-saturate: ; --tw-sepia: ; --tw-drop-shadow: ; --tw-backdrop-blur: ; --tw-backdrop-brightness: ; --tw-backdrop-contrast: ; --tw-backdrop-grayscale: ; --tw-backdrop-hue-rotate: ; --tw-backdrop-invert: ; --tw-backdrop-opacity: ; --tw-backdrop-saturate: ; --tw-backdrop-sepia: ; --tw-contain-size: ; --tw-contain-layout: ; --tw-contain-paint: ; --tw-contain-style: ; --darkreader-bg--tw-ring-offset-width: 0px; --darkreader-bg--tw-ring-offset-color: #181a1b; --darkreader-bg--tw-ring-color: rgba(55, 71, 131, 0.5); --darkreader-bg--tw-ring-offset-shadow: 0 0 transparent; --darkreader-bg--tw-ring-shadow: 0 0 transparent; --darkreader-bg--tw-shadow: 0 0 transparent; margin-top: 1.25em; margin-bottom: 1.25em; text-align: left; background-color: rgb(25, 27, 28); font-size: 16px;&quot;&gt;&lt;font face=&quot;Söhne, ui-sans-serif, system-ui, -apple-system, Segoe UI, Roboto, Ubuntu, Cantarell, Noto Sans, sans-serif, Helvetica Neue, Arial, Apple Color Emoji, Segoe UI Emoji, Segoe UI Symbol, Noto Color Emoji&quot; color=&quot;#dcd9d4&quot;&gt;&lt;b&gt;&lt;div style=&quot;&quot;&gt;EN&lt;/div&gt;&lt;div style=&quot;&quot;&gt;ES&lt;/div&gt;&lt;div style=&quot;&quot;&gt;FR&lt;/div&gt;&lt;div style=&quot;&quot;&gt;DE&lt;/div&gt;&lt;/b&gt;&lt;/font&gt;&lt;/span&gt;" style="rounded=0;whiteSpace=wrap;html=1;dashed=1;" vertex="1" parent="1">
                    <mxGeometry x="870" y="350" width="110" height="140" as="geometry"/>
                </mxCell>
                <mxCell id="163" value="ISO 639-1" style="text;html=1;strokeColor=none;fillColor=none;align=center;verticalAlign=middle;whiteSpace=wrap;rounded=0;dashed=1;" vertex="1" parent="1">
                    <mxGeometry x="895" y="350" width="60" height="30" as="geometry"/>
                </mxCell>
                <mxCell id="164" style="edgeStyle=orthogonalEdgeStyle;rounded=0;html=1;exitX=1;exitY=0.5;exitDx=0;exitDy=0;entryX=0;entryY=0.5;entryDx=0;entryDy=0;dashed=1;startArrow=none;startFill=0;endArrow=none;endFill=0;" edge="1" parent="1" source="25" target="162">
                    <mxGeometry relative="1" as="geometry"/>
                </mxCell>
                <mxCell id="169" style="edgeStyle=orthogonalEdgeStyle;rounded=0;html=1;entryX=0;entryY=0.5;entryDx=0;entryDy=0;dashed=1;startArrow=none;startFill=0;endArrow=none;endFill=0;" edge="1" parent="1" source="168" target="174">
                    <mxGeometry relative="1" as="geometry"/>
                </mxCell>
                <mxCell id="168" value="&lt;span style=&quot;border: 0px solid rgb(56, 61, 63); box-sizing: border-box; --tw-border-spacing-x: 0; --tw-border-spacing-y: 0; --tw-translate-x: 0; --tw-translate-y: 0; --tw-rotate: 0; --tw-skew-x: 0; --tw-skew-y: 0; --tw-scale-x: 1; --tw-scale-y: 1; --tw-pan-x: ; --tw-pan-y: ; --tw-pinch-zoom: ; --tw-scroll-snap-strictness: proximity; --tw-gradient-from-position: ; --tw-gradient-via-position: ; --tw-gradient-to-position: ; --tw-ordinal: ; --tw-slashed-zero: ; --tw-numeric-figure: ; --tw-numeric-spacing: ; --tw-numeric-fraction: ; --tw-ring-inset: ; --tw-ring-offset-width: 0px; --tw-ring-offset-color: #fff; --tw-ring-color: rgba(69,89,164,.5); --tw-ring-offset-shadow: 0 0 transparent; --tw-ring-shadow: 0 0 transparent; --tw-shadow: 0 0 transparent; --tw-shadow-colored: 0 0 transparent; --tw-blur: ; --tw-brightness: ; --tw-contrast: ; --tw-grayscale: ; --tw-hue-rotate: ; --tw-invert: ; --tw-saturate: ; --tw-sepia: ; --tw-drop-shadow: ; --tw-backdrop-blur: ; --tw-backdrop-brightness: ; --tw-backdrop-contrast: ; --tw-backdrop-grayscale: ; --tw-backdrop-hue-rotate: ; --tw-backdrop-invert: ; --tw-backdrop-opacity: ; --tw-backdrop-saturate: ; --tw-backdrop-sepia: ; --tw-contain-size: ; --tw-contain-layout: ; --tw-contain-paint: ; --tw-contain-style: ; --darkreader-bg--tw-ring-offset-width: 0px; --darkreader-bg--tw-ring-offset-color: #181a1b; --darkreader-bg--tw-ring-color: rgba(55, 71, 131, 0.5); --darkreader-bg--tw-ring-offset-shadow: 0 0 transparent; --darkreader-bg--tw-ring-shadow: 0 0 transparent; --darkreader-bg--tw-shadow: 0 0 transparent; margin-top: 1.25em; margin-bottom: 1.25em; text-align: left; background-color: rgb(25, 27, 28); font-size: 16px;&quot;&gt;&lt;font face=&quot;Söhne, ui-sans-serif, system-ui, -apple-system, Segoe UI, Roboto, Ubuntu, Cantarell, Noto Sans, sans-serif, Helvetica Neue, Arial, Apple Color Emoji, Segoe UI Emoji, Segoe UI Symbol, Noto Color Emoji&quot; color=&quot;#dcd9d4&quot;&gt;&lt;b&gt;&lt;div style=&quot;&quot;&gt;BOOK&lt;/div&gt;&lt;div style=&quot;&quot;&gt;MAGAZINE&lt;/div&gt;&lt;div style=&quot;&quot;&gt;DVD&lt;/div&gt;&lt;div style=&quot;&quot;&gt;COMICS&lt;/div&gt;&lt;div style=&quot;&quot;&gt;ENCYCLOPEDIA&lt;/div&gt;&lt;div style=&quot;&quot;&gt;DICTIONARY&lt;/div&gt;&lt;div style=&quot;&quot;&gt;ARTICLE&lt;/div&gt;&lt;div style=&quot;&quot;&gt;REPORT&lt;/div&gt;&lt;div style=&quot;&quot;&gt;RESEARCH_PAPER&lt;/div&gt;&lt;div style=&quot;&quot;&gt;&lt;span style=&quot;border: 0px solid rgb(56, 61, 63); box-sizing: border-box; --tw-border-spacing-x: 0; --tw-border-spacing-y: 0; --tw-translate-x: 0; --tw-translate-y: 0; --tw-rotate: 0; --tw-skew-x: 0; --tw-skew-y: 0; --tw-scale-x: 1; --tw-scale-y: 1; --tw-pan-x: ; --tw-pan-y: ; --tw-pinch-zoom: ; --tw-scroll-snap-strictness: proximity; --tw-gradient-from-position: ; --tw-gradient-via-position: ; --tw-gradient-to-position: ; --tw-ordinal: ; --tw-slashed-zero: ; --tw-numeric-figure: ; --tw-numeric-spacing: ; --tw-numeric-fraction: ; --tw-ring-inset: ; --tw-ring-offset-width: 0px; --tw-ring-offset-color: #fff; --tw-ring-color: rgba(69,89,164,.5); --tw-ring-offset-shadow: 0 0 transparent; --tw-ring-shadow: 0 0 transparent; --tw-shadow: 0 0 transparent; --tw-shadow-colored: 0 0 transparent; --tw-blur: ; --tw-brightness: ; --tw-contrast: ; --tw-grayscale: ; --tw-hue-rotate: ; --tw-invert: ; --tw-saturate: ; --tw-sepia: ; --tw-drop-shadow: ; --tw-backdrop-blur: ; --tw-backdrop-brightness: ; --tw-backdrop-contrast: ; --tw-backdrop-grayscale: ; --tw-backdrop-hue-rotate: ; --tw-backdrop-invert: ; --tw-backdrop-opacity: ; --tw-backdrop-saturate: ; --tw-backdrop-sepia: ; --tw-contain-size: ; --tw-contain-layout: ; --tw-contain-paint: ; --tw-contain-style: ; --darkreader-bg--tw-ring-offset-width: 0px; --darkreader-bg--tw-ring-offset-color: #181a1b; --darkreader-bg--tw-ring-color: rgba(55, 71, 131, 0.5); --darkreader-bg--tw-ring-offset-shadow: 0 0 transparent; --darkreader-bg--tw-ring-shadow: 0 0 transparent; --darkreader-bg--tw-shadow: 0 0 transparent;&quot;&gt;EDUCATIONAL&lt;/span&gt;&lt;br&gt;&lt;/div&gt;&lt;/b&gt;&lt;/font&gt;&lt;/span&gt;" style="rounded=0;whiteSpace=wrap;html=1;dashed=1;" vertex="1" parent="1">
                    <mxGeometry x="-180" y="290" width="170" height="230" as="geometry"/>
                </mxCell>
                <mxCell id="189" style="edgeStyle=orthogonalEdgeStyle;rounded=0;html=1;exitX=0.5;exitY=0;exitDx=0;exitDy=0;entryX=0;entryY=0.5;entryDx=0;entryDy=0;startArrow=ERmandOne;startFill=0;endArrow=ERmany;endFill=0;" edge="1" parent="1" source="170" target="165">
                    <mxGeometry relative="1" as="geometry"/>
                </mxCell>
                <mxCell id="170" value="ResourceType" style="shape=table;startSize=30;container=1;collapsible=1;childLayout=tableLayout;fixedRows=1;rowLines=0;fontStyle=1;align=center;resizeLast=1;" vertex="1" parent="1">
                    <mxGeometry x="30" y="530" width="180" height="120" as="geometry"/>
                </mxCell>
                <mxCell id="171" value="" style="shape=tableRow;horizontal=0;startSize=0;swimlaneHead=0;swimlaneBody=0;fillColor=none;collapsible=0;dropTarget=0;points=[[0,0.5],[1,0.5]];portConstraint=eastwest;top=0;left=0;right=0;bottom=1;" vertex="1" parent="170">
                    <mxGeometry y="30" width="180" height="30" as="geometry"/>
                </mxCell>
                <mxCell id="172" value="PK" style="shape=partialRectangle;connectable=0;fillColor=none;top=0;left=0;bottom=0;right=0;fontStyle=1;overflow=hidden;" vertex="1" parent="171">
                    <mxGeometry width="30" height="30" as="geometry">
                        <mxRectangle width="30" height="30" as="alternateBounds"/>
                    </mxGeometry>
                </mxCell>
                <mxCell id="173" value="id" style="shape=partialRectangle;connectable=0;fillColor=none;top=0;left=0;bottom=0;right=0;align=left;spacingLeft=6;fontStyle=5;overflow=hidden;" vertex="1" parent="171">
                    <mxGeometry x="30" width="150" height="30" as="geometry">
                        <mxRectangle width="150" height="30" as="alternateBounds"/>
                    </mxGeometry>
                </mxCell>
                <mxCell id="174" value="" style="shape=tableRow;horizontal=0;startSize=0;swimlaneHead=0;swimlaneBody=0;fillColor=none;collapsible=0;dropTarget=0;points=[[0,0.5],[1,0.5]];portConstraint=eastwest;top=0;left=0;right=0;bottom=0;" vertex="1" parent="170">
                    <mxGeometry y="60" width="180" height="30" as="geometry"/>
                </mxCell>
                <mxCell id="175" value="" style="shape=partialRectangle;connectable=0;fillColor=none;top=0;left=0;bottom=0;right=0;editable=1;overflow=hidden;" vertex="1" parent="174">
                    <mxGeometry width="30" height="30" as="geometry">
                        <mxRectangle width="30" height="30" as="alternateBounds"/>
                    </mxGeometry>
                </mxCell>
                <mxCell id="176" value="name" style="shape=partialRectangle;connectable=0;fillColor=none;top=0;left=0;bottom=0;right=0;align=left;spacingLeft=6;overflow=hidden;" vertex="1" parent="174">
                    <mxGeometry x="30" width="150" height="30" as="geometry">
                        <mxRectangle width="150" height="30" as="alternateBounds"/>
                    </mxGeometry>
                </mxCell>
                <mxCell id="177" value="" style="shape=tableRow;horizontal=0;startSize=0;swimlaneHead=0;swimlaneBody=0;fillColor=none;collapsible=0;dropTarget=0;points=[[0,0.5],[1,0.5]];portConstraint=eastwest;top=0;left=0;right=0;bottom=0;" vertex="1" parent="170">
                    <mxGeometry y="90" width="180" height="30" as="geometry"/>
                </mxCell>
                <mxCell id="178" value="" style="shape=partialRectangle;connectable=0;fillColor=none;top=0;left=0;bottom=0;right=0;editable=1;overflow=hidden;" vertex="1" parent="177">
                    <mxGeometry width="30" height="30" as="geometry">
                        <mxRectangle width="30" height="30" as="alternateBounds"/>
                    </mxGeometry>
                </mxCell>
                <mxCell id="179" value="max_loan_days" style="shape=partialRectangle;connectable=0;fillColor=none;top=0;left=0;bottom=0;right=0;align=left;spacingLeft=6;overflow=hidden;" vertex="1" parent="177">
                    <mxGeometry x="30" width="150" height="30" as="geometry">
                        <mxRectangle width="150" height="30" as="alternateBounds"/>
                    </mxGeometry>
                </mxCell>
                <mxCell id="190" value="&lt;span style=&quot;border: 0px solid rgb(56, 61, 63); box-sizing: border-box; --tw-border-spacing-x: 0; --tw-border-spacing-y: 0; --tw-translate-x: 0; --tw-translate-y: 0; --tw-rotate: 0; --tw-skew-x: 0; --tw-skew-y: 0; --tw-scale-x: 1; --tw-scale-y: 1; --tw-pan-x: ; --tw-pan-y: ; --tw-pinch-zoom: ; --tw-scroll-snap-strictness: proximity; --tw-gradient-from-position: ; --tw-gradient-via-position: ; --tw-gradient-to-position: ; --tw-ordinal: ; --tw-slashed-zero: ; --tw-numeric-figure: ; --tw-numeric-spacing: ; --tw-numeric-fraction: ; --tw-ring-inset: ; --tw-ring-offset-width: 0px; --tw-ring-offset-color: #fff; --tw-ring-color: rgba(69,89,164,.5); --tw-ring-offset-shadow: 0 0 transparent; --tw-ring-shadow: 0 0 transparent; --tw-shadow: 0 0 transparent; --tw-shadow-colored: 0 0 transparent; --tw-blur: ; --tw-brightness: ; --tw-contrast: ; --tw-grayscale: ; --tw-hue-rotate: ; --tw-invert: ; --tw-saturate: ; --tw-sepia: ; --tw-drop-shadow: ; --tw-backdrop-blur: ; --tw-backdrop-brightness: ; --tw-backdrop-contrast: ; --tw-backdrop-grayscale: ; --tw-backdrop-hue-rotate: ; --tw-backdrop-invert: ; --tw-backdrop-opacity: ; --tw-backdrop-saturate: ; --tw-backdrop-sepia: ; --tw-contain-size: ; --tw-contain-layout: ; --tw-contain-paint: ; --tw-contain-style: ; --darkreader-bg--tw-ring-offset-width: 0px; --darkreader-bg--tw-ring-offset-color: #181a1b; --darkreader-bg--tw-ring-color: rgba(55, 71, 131, 0.5); --darkreader-bg--tw-ring-offset-shadow: 0 0 transparent; --darkreader-bg--tw-ring-shadow: 0 0 transparent; --darkreader-bg--tw-shadow: 0 0 transparent; margin-top: 1.25em; margin-bottom: 1.25em; text-align: left; background-color: rgb(25, 27, 28); font-size: 16px;&quot;&gt;&lt;font face=&quot;Söhne, ui-sans-serif, system-ui, -apple-system, Segoe UI, Roboto, Ubuntu, Cantarell, Noto Sans, sans-serif, Helvetica Neue, Arial, Apple Color Emoji, Segoe UI Emoji, Segoe UI Symbol, Noto Color Emoji&quot; color=&quot;#dcd9d4&quot;&gt;&lt;b&gt;&lt;div style=&quot;&quot;&gt;BOOK&lt;/div&gt;&lt;div style=&quot;&quot;&gt;MAGAZINE&lt;/div&gt;&lt;div style=&quot;&quot;&gt;DVD&lt;/div&gt;&lt;div style=&quot;&quot;&gt;COMICS&lt;/div&gt;&lt;div style=&quot;&quot;&gt;ENCYCLOPEDIA&lt;/div&gt;&lt;div style=&quot;&quot;&gt;DICTIONARY&lt;/div&gt;&lt;div style=&quot;&quot;&gt;ARTICLE&lt;/div&gt;&lt;div style=&quot;&quot;&gt;REPORT&lt;/div&gt;&lt;div style=&quot;&quot;&gt;RESEARCH_PAPER&lt;/div&gt;&lt;div style=&quot;&quot;&gt;&lt;span style=&quot;border: 0px solid rgb(56, 61, 63); box-sizing: border-box; --tw-border-spacing-x: 0; --tw-border-spacing-y: 0; --tw-translate-x: 0; --tw-translate-y: 0; --tw-rotate: 0; --tw-skew-x: 0; --tw-skew-y: 0; --tw-scale-x: 1; --tw-scale-y: 1; --tw-pan-x: ; --tw-pan-y: ; --tw-pinch-zoom: ; --tw-scroll-snap-strictness: proximity; --tw-gradient-from-position: ; --tw-gradient-via-position: ; --tw-gradient-to-position: ; --tw-ordinal: ; --tw-slashed-zero: ; --tw-numeric-figure: ; --tw-numeric-spacing: ; --tw-numeric-fraction: ; --tw-ring-inset: ; --tw-ring-offset-width: 0px; --tw-ring-offset-color: #fff; --tw-ring-color: rgba(69,89,164,.5); --tw-ring-offset-shadow: 0 0 transparent; --tw-ring-shadow: 0 0 transparent; --tw-shadow: 0 0 transparent; --tw-shadow-colored: 0 0 transparent; --tw-blur: ; --tw-brightness: ; --tw-contrast: ; --tw-grayscale: ; --tw-hue-rotate: ; --tw-invert: ; --tw-saturate: ; --tw-sepia: ; --tw-drop-shadow: ; --tw-backdrop-blur: ; --tw-backdrop-brightness: ; --tw-backdrop-contrast: ; --tw-backdrop-grayscale: ; --tw-backdrop-hue-rotate: ; --tw-backdrop-invert: ; --tw-backdrop-opacity: ; --tw-backdrop-saturate: ; --tw-backdrop-sepia: ; --tw-contain-size: ; --tw-contain-layout: ; --tw-contain-paint: ; --tw-contain-style: ; --darkreader-bg--tw-ring-offset-width: 0px; --darkreader-bg--tw-ring-offset-color: #181a1b; --darkreader-bg--tw-ring-color: rgba(55, 71, 131, 0.5); --darkreader-bg--tw-ring-offset-shadow: 0 0 transparent; --darkreader-bg--tw-ring-shadow: 0 0 transparent; --darkreader-bg--tw-shadow: 0 0 transparent;&quot;&gt;EDUCATIONAL&lt;/span&gt;&lt;br&gt;&lt;/div&gt;&lt;/b&gt;&lt;/font&gt;&lt;/span&gt;" style="rounded=0;whiteSpace=wrap;html=1;dashed=1;" vertex="1" parent="1">
                    <mxGeometry x="190" y="670" width="170" height="230" as="geometry"/>
                </mxCell>
            </root>
        </mxGraphModel>
    </diagram>
</mxfile>